<svg xmlns="http://www.w3.org/2000/svg" width="124" height="122.643" viewBox="0 0 124 122.643">
  <g id="Gruppe_345" data-name="Gruppe 345" transform="translate(-560 -172.699)">
    <rect id="Rechteck_268" data-name="Rechteck 268" width="124" height="122.643" transform="translate(560 172.699)" fill="#2b4452"/>
    <g id="Gruppe_343" data-name="Gruppe 343" transform="translate(566.454 194.338)">
      <path id="Pfad_73" data-name="Pfad 73" d="M4,96.228a36.277,36.277,0,0,1,72.555,0H67.485a27.208,27.208,0,1,0-54.416,0ZM40.277,55.416A27.208,27.208,0,1,1,67.485,28.208,27.2,27.2,0,0,1,40.277,55.416Zm0-9.069A18.139,18.139,0,1,0,22.139,28.208,18.134,18.134,0,0,0,40.277,46.347Z" transform="translate(14.139 3.535)" fill="#fff"/>
    </g>
  </g>
</svg>
