<svg xmlns="http://www.w3.org/2000/svg" fill="none" viewBox="0 0 256 256">
  <g clip-path="url(#a)">
    <path fill="#8B5CF6" d="M0 23A23 23 0 0 1 23 0h210a23 23 0 0 1 23 23v210a23 23 0 0 1-23 23H23a23 23 0 0 1-23-23V23Z"/>
    <path fill="#fff" fill-rule="evenodd" d="M68.2 63.1c-.38-4.08-2.04-7.25-4.98-9.52-2.91-2.3-7.07-3.45-12.47-3.45-3.58 0-6.56.46-8.95 1.4-2.38.92-4.17 2.2-5.36 3.83a9.25 9.25 0 0 0-1.85 5.52 8.16 8.16 0 0 0 1 4.5c.79 1.3 1.9 2.46 3.36 3.46 1.5.97 3.28 1.82 5.37 2.56 2.09.75 4.43 1.4 7.04 1.95l9.84 2.23a69.47 69.47 0 0 1 14.99 4.9 40.48 40.48 0 0 1 10.96 7.3 28.22 28.22 0 0 1 6.76 9.74 32.63 32.63 0 0 1 2.35 12.37c-.04 7.2-1.86 13.39-5.48 18.55-3.61 5.16-8.81 9.11-15.6 11.86-6.75 2.75-14.89 4.12-24.43 4.12-9.58 0-17.93-1.43-25.05-4.29-7.12-2.86-12.65-7.2-16.6-13.03-3.96-5.83-5.99-13.2-6.1-22.11h26.5c.23 3.67 1.21 6.74 2.97 9.19a16.24 16.24 0 0 0 7.2 5.57c3.1 1.26 6.68 1.9 10.74 1.9 3.73 0 6.9-.51 9.5-1.51 2.65-1 4.69-2.4 6.1-4.18a9.84 9.84 0 0 0 2.18-6.13c-.03-2.15-.7-3.99-2.01-5.51-1.3-1.56-3.32-2.9-6.04-4.01a62.13 62.13 0 0 0-10.29-3.17L37.9 94.34c-9.92-2.26-17.73-5.92-23.43-10.97-5.7-5.09-8.53-11.96-8.5-20.6-.03-7.06 1.87-13.25 5.7-18.56 3.85-5.3 9.16-9.45 15.94-12.42 6.78-2.97 14.52-4.45 23.2-4.45 8.88 0 16.57 1.5 23.1 4.51 6.56 2.97 11.64 7.15 15.26 12.53 3.62 5.39 5.46 11.62 5.53 18.72H68.2Zm61.38-31.78 24.27 79.93h.9l24.27-79.93h29.35l-36.61 109.13h-34.92L100.23 31.32h29.35ZM34.42 256 3 148.26h29.21l16.5 71.52h.91l18.86-71.52H92.3l18.85 71.68h.9l16.56-71.68h29.16L126.4 256h-26.3l-19.29-64.78h-.85L60.66 256H34.43Zm201.28 0c3.58-2.3 6.52-5.1 8.82-8.38 3.62-5.17 5.44-11.35 5.48-18.55a32.63 32.63 0 0 0-2.35-12.36 28.22 28.22 0 0 0-6.76-9.75 40.49 40.49 0 0 0-10.96-7.3 69.45 69.45 0 0 0-14.99-4.9l-9.84-2.23a55.99 55.99 0 0 1-7.04-1.95 25.78 25.78 0 0 1-5.37-2.56c-1.45-1-2.57-2.15-3.35-3.45a8.16 8.16 0 0 1-1.01-4.51 9.26 9.26 0 0 1 1.84-5.52 11.66 11.66 0 0 1 5.37-3.84c2.39-.93 5.37-1.4 8.95-1.4 5.4 0 9.56 1.16 12.47 3.46 2.94 2.27 4.6 5.44 4.97 9.53h26.5c-.07-7.1-1.92-13.33-5.53-18.72-3.62-5.38-8.7-9.56-15.26-12.53-6.53-3-14.22-4.51-23.1-4.51-8.68 0-16.41 1.48-23.2 4.45-6.78 2.98-12.1 7.12-15.93 12.42-3.84 5.31-5.74 11.5-5.7 18.55-.04 8.65 2.79 15.52 8.5 20.6 5.7 5.06 13.5 8.71 23.42 10.98l11.96 2.78c4.18.97 7.6 2.03 10.3 3.18 2.71 1.11 4.73 2.45 6.03 4a8.42 8.42 0 0 1 2.01 5.52 9.84 9.84 0 0 1-2.18 6.13 13.8 13.8 0 0 1-6.1 4.18c-2.6 1-5.77 1.5-9.5 1.5-4.06 0-7.64-.63-10.73-1.9a16.24 16.24 0 0 1-7.21-5.56c-1.76-2.45-2.74-5.52-2.97-9.2h-26.5c.11 8.92 2.14 16.29 6.1 22.12 2.64 3.9 6 7.15 10.08 9.72h62.78Z" clip-rule="evenodd"/>
  </g>
  <defs>
    <clipPath id="a">
      <path fill="#fff" d="M0 0h256v256H0z"/>
    </clipPath>
  </defs>
</svg>
