<svg xmlns="http://www.w3.org/2000/svg" viewBox="0 0 50 50" id="Rabbit-2--Streamline-Ultimate" height="50" width="50">
  <desc>
    Rabbit 2 Streamline Icon: https://streamlinehq.com
  </desc>
  <defs></defs>
  <title>rabbit-2</title>
  <path d="M45.643750000000004 3.9395833333333337A38.014583333333334 38.014583333333334 0 0 1 34.791666666666664 25.833333333333336a13.333333333333336 13.333333333333336 0 0 0 -6.208333333333334 -4c1.25 -3.791666666666667 4.5625 -14.916666666666668 14 -19.979166666666668a2.1062499999999997 2.1062499999999997 0 0 1 3.0625 2.0833333333333335Z" fill="#ffffff" stroke-width="1"></path>
  <path d="M21.414583333333336 21.835416666666667a13.316666666666668 13.316666666666668 0 0 0 -6.187500000000001 4H15.208333333333334a38.014583333333334 38.014583333333334 0 0 1 -10.854166666666668 -21.895833333333336 2.1062499999999997 2.1062499999999997 0 0 1 3.0625 -2.0833333333333335c9.435416666666667 5.062500000000001 12.747916666666667 16.166666666666668 13.997916666666669 19.979166666666668Z" fill="#ffffff" stroke-width="1"></path>
  <path d="M15.208333333333334 25.833333333333336h0.020833333333333336a13.316666666666668 13.316666666666668 0 0 1 6.187500000000001 -4c-0.3166666666666667 -0.9687500000000001 -0.7708333333333334 -2.410416666666667 -1.4208333333333336 -4.102083333333334a18.31875 18.31875 0 0 0 -7.7770833333333345 4.791666666666667A27.056250000000002 27.056250000000002 0 0 0 15.208333333333334 25.833333333333336Z" fill="#dff9ff" stroke-width="1"></path>
  <path d="M28.58125 21.835416666666667A13.333333333333336 13.333333333333336 0 0 1 34.791666666666664 25.833333333333336a26.885416666666668 26.885416666666668 0 0 0 2.9895833333333335 -3.3083333333333336 18.34375 18.34375 0 0 0 -7.772916666666667 -4.791666666666667c-0.6541666666666667 1.69375 -1.1083333333333334 3.1375 -1.4270833333333335 4.102083333333334Z" fill="#dff9ff" stroke-width="1"></path>
  <path d="M25 37.96458333333334v10.416666666666668h-4.166666666666667a2.0833333333333335 2.0833333333333335 0 0 1 -2.0833333333333335 -2.0833333333333335v-1.1145833333333335" stroke="#f53d05" stroke-linecap="round" stroke-linejoin="round" fill="#dff9ff" stroke-width="1"></path>
  <path d="M25 37.96458333333334v10.416666666666668h4.166666666666667a2.0833333333333335 2.0833333333333335 0 0 0 2.0833333333333335 -2.0833333333333335v-1.1145833333333335" stroke="#f53d05" stroke-linecap="round" stroke-linejoin="round" fill="#dff9ff" stroke-width="1"></path>
  <path d="M12.068750000000001 22.33125A38.17291666666667 38.17291666666667 0 0 1 4.375000000000001 3.9375 2.0833333333333335 2.0833333333333335 0 0 1 7.414583333333335 1.8750000000000002c9.445833333333333 5.054166666666667 12.758333333333333 16.177083333333332 14.008333333333335 19.96666666666667" fill="none" stroke="#f53d05" stroke-linecap="round" stroke-linejoin="round" stroke-width="1"></path>
  <path d="M37.931250000000006 22.33125a38.17291666666667 38.17291666666667 0 0 0 7.708333333333334 -18.393750000000004A2.0833333333333335 2.0833333333333335 0 0 0 42.58541666666667 1.8750000000000002c-9.445833333333333 5.054166666666667 -12.758333333333333 16.177083333333332 -14.008333333333335 19.96666666666667" fill="none" stroke="#f53d05" stroke-linecap="round" stroke-linejoin="round" stroke-width="1"></path>
  <path d="M25 21.29791666666667c-6.327083333333333 0 -12.5 5.1312500000000005 -12.5 11.458333333333334a7.520833333333334 7.520833333333334 0 0 0 -2.0833333333333335 5.208333333333334 7.291666666666667 7.291666666666667 0 0 0 14.583333333333334 0 7.291666666666667 7.291666666666667 0 1 0 14.583333333333334 0 7.520833333333334 7.520833333333334 0 0 0 -2.0833333333333335 -5.208333333333334c0 -6.327083333333333 -6.175000000000001 -11.458333333333334 -12.5 -11.458333333333334Z" fill="#ffffff" stroke-width="1"></path>
  <path d="M23.914583333333333 36.875a7.26875 7.26875 0 0 1 -13.054166666666667 -1.3958333333333335A7.5625 7.5625 0 0 0 10.416666666666668 37.96458333333334a7.291666666666667 7.291666666666667 0 0 0 14.583333333333334 0s-0.3979166666666667 -2.19375 -1.0854166666666667 -1.0895833333333333Z" fill="#dff9ff" stroke-width="1"></path>
  <path d="M32.29166666666667 40.35a7.291666666666667 7.291666666666667 0 0 1 -6.202083333333333 -3.4562500000000003c-0.6895833333333334 -1.1145833333333335 -1.0895833333333333 1.0708333333333335 -1.0895833333333333 1.0708333333333335a7.291666666666667 7.291666666666667 0 1 0 14.583333333333334 0 7.552083333333334 7.552083333333334 0 0 0 -0.44583333333333336 -2.4770833333333337 7.272916666666667 7.272916666666667 0 0 1 -6.845833333333334 4.862500000000001Z" fill="#dff9ff" stroke-width="1"></path>
  <path d="M25 21.29791666666667c-6.327083333333333 0 -12.5 5.1312500000000005 -12.5 11.458333333333334a7.520833333333334 7.520833333333334 0 0 0 -2.0833333333333335 5.208333333333334 7.291666666666667 7.291666666666667 0 0 0 14.583333333333334 0 7.291666666666667 7.291666666666667 0 1 0 14.583333333333334 0 7.520833333333334 7.520833333333334 0 0 0 -2.0833333333333335 -5.208333333333334c0 -6.327083333333333 -6.175000000000001 -11.458333333333334 -12.5 -11.458333333333334Z" fill="none" stroke="#f53d05" stroke-linecap="round" stroke-linejoin="round" stroke-width="1"></path>
  <path d="m27.081250000000004 35.88125 -2.0833333333333335 2.0833333333333335 -2.0833333333333335 -2.0833333333333335" fill="none" stroke="#f53d05" stroke-linecap="round" stroke-linejoin="round" stroke-width="1"></path>
  <path d="M20.3125 31.193750000000005a0.5208333333333334 0.5208333333333334 0 0 1 0.5208333333333334 0.5208333333333334" fill="none" stroke="#f53d05" stroke-linecap="round" stroke-linejoin="round" stroke-width="1"></path>
  <path d="M19.791666666666668 31.714583333333337a0.5208333333333334 0.5208333333333334 0 0 1 0.5208333333333334 -0.5208333333333334" fill="none" stroke="#f53d05" stroke-linecap="round" stroke-linejoin="round" stroke-width="1"></path>
  <path d="M20.3125 32.23541666666667a0.51875 0.51875 0 0 1 -0.5208333333333334 -0.5208333333333334" fill="none" stroke="#f53d05" stroke-linecap="round" stroke-linejoin="round" stroke-width="1"></path>
  <path d="M20.833333333333336 31.714583333333337a0.51875 0.51875 0 0 1 -0.5208333333333334 0.5208333333333334" fill="none" stroke="#f53d05" stroke-linecap="round" stroke-linejoin="round" stroke-width="1"></path>
  <path d="M29.687500000000004 31.193750000000005a0.5208333333333334 0.5208333333333334 0 0 0 -0.5208333333333334 0.5208333333333334" fill="none" stroke="#f53d05" stroke-linecap="round" stroke-linejoin="round" stroke-width="1"></path>
  <path d="M30.208333333333336 31.714583333333337a0.5208333333333334 0.5208333333333334 0 0 0 -0.5208333333333334 -0.5208333333333334" fill="none" stroke="#f53d05" stroke-linecap="round" stroke-linejoin="round" stroke-width="1"></path>
  <path d="M29.687500000000004 32.23541666666667a0.51875 0.51875 0 0 0 0.5208333333333334 -0.5208333333333334" fill="none" stroke="#f53d05" stroke-linecap="round" stroke-linejoin="round" stroke-width="1"></path>
  <path d="M29.166666666666668 31.714583333333337a0.51875 0.51875 0 0 0 0.5208333333333334 0.5208333333333334" fill="none" stroke="#f53d05" stroke-linecap="round" stroke-linejoin="round" stroke-width="1"></path>
</svg>
