<?xml version="1.0" encoding="iso-8859-1"?>
<!-- Generator: Adobe Illustrator 19.0.0, SVG Export Plug-In . SVG Version: 6.00 Build 0)  -->
<svg version="1.1" id="Layer_1" xmlns="http://www.w3.org/2000/svg" xmlns:xlink="http://www.w3.org/1999/xlink" x="0px" y="0px"
	 viewBox="0 0 318.965 318.965" style="enable-background:new 0 0 318.965 318.965;" xml:space="preserve">
<g>
	<g>
		<path style="fill:#A0A0A0;" d="M303.673,253.518c-11.151-37.754-67.121-33.566-91.279-44.408
			c-24.157-10.842-20.386-47.219-23.449-53.548h-58.932c-3.058,6.329,0.714,42.711-23.449,53.548
			c-24.157,10.842-80.133,6.655-91.279,44.408c-6.149,20.824-5.857,27.193-7.554,50.26c0,0,76.8,15.187,150.014,15.187
			s153.488-15.187,153.488-15.187C309.53,280.705,309.822,274.342,303.673,253.518z"/>
		<path style="fill:#9A9A9A;" d="M303.673,253.518c-11.151-37.754-67.121-33.566-91.279-44.408
			c-24.157-10.842-20.386-47.219-23.449-53.548H157.74c0,0-0.719,51.024,23.438,61.866s80.133,6.655,91.279,44.408
			c5.857,19.83,5.868,26.552,7.324,47.073c19.234-2.816,31.442-5.126,31.442-5.126C309.53,280.705,309.822,274.342,303.673,253.518z
			"/>
		<path style="fill:#9A9A9A;" d="M60.621,312.068c27.631,3.552,62.771,6.897,97.124,6.897c35.112,0,71.854-3.496,100.581-7.133
			v-22.853c0,0-56.853,8.526-100.721,8.526s-96.978-8.526-96.978-8.526v23.089H60.621z"/>
		<path style="fill:#EAE5DC;" d="M190.092,226.382c9.741-3.805,17.756-9.409,23.168-16.21l0.416-0.517
			c-0.433-0.18-0.86-0.36-1.276-0.545c-24.157-10.842-20.386-47.219-23.449-53.548h-58.938c-3.058,6.329,0.714,42.711-23.449,53.548
			c-0.416,0.185-0.843,0.371-1.276,0.545l0.416,0.517c5.413,6.795,13.428,12.399,23.168,16.21c9.229,3.603,19.813,5.508,30.61,5.508
			S180.863,229.984,190.092,226.382z"/>
		<path style="fill:#E0DBD3;" d="M212.395,209.109c-4.345-1.95-7.779-4.727-10.516-8.004l0,0
			c-5.064,6.357-13.827,11.404-24.573,14.096c1.214,0.86,2.507,1.607,3.878,2.22c4.71,2.113,10.634,3.659,17.199,5.053
			c6.031-3.378,11.089-7.548,14.872-12.304l0.416-0.517C213.238,209.48,212.811,209.295,212.395,209.109z"/>
		<path style="fill:#DFDFDF;" d="M201.878,201.106c-12.5-14.951-10.421-40.356-12.927-45.549h-58.938
			c-2.512,5.193-0.427,30.599-12.927,45.549c7.655,9.611,23.764,16.232,42.396,16.232S194.223,210.717,201.878,201.106z"/>
		<path style="fill:#CBCBCB;" d="M177.305,215.202c10.747-2.692,19.509-7.74,24.573-14.096
			c-12.5-14.951-10.421-40.356-12.927-45.549h-31.206C157.745,155.562,157.105,200.948,177.305,215.202z"/>
		<path style="fill:#C7C7C7;" d="M122.083,193.158c9.78,7.959,21.24,15.85,37.338,18.132c16.137-2.288,27.569-10.342,37.36-18.334
			c-8.144-14.973-5.626-32.83-7.83-37.4h-58.938C127.799,160.131,130.266,178.179,122.083,193.158z"/>
		<g>
			
				<ellipse transform="matrix(-0.177 0.9842 -0.9842 -0.177 385.6561 -85.3711)" style="fill:#CBCBCB;" cx="228.522" cy="118.558" rx="21.386" ry="11.629"/>
			
				<ellipse transform="matrix(-0.9842 0.177 -0.177 -0.9842 200.0903 219.2807)" style="fill:#DFDFDF;" cx="90.265" cy="118.565" rx="11.629" ry="21.386"/>
			<path style="fill:#DFDFDF;" d="M223.641,47.365H159.42H95.233c0,0-35.989,146.614,64.187,160.806
				C259.636,193.979,223.641,47.365,223.641,47.365z"/>
			<path style="fill:#CBCBCB;" d="M159.42,208.171c100.216-14.192,64.221-160.806,64.221-160.806h-15.024
				c4.114,61.242,9.808,93.774-13.815,129.24C176.085,204.708,159.42,208.171,159.42,208.171z"/>
			<path style="fill:#CBCBCB;" d="M192.666,55.234L90.309,83.365c8.661,3.468,25.574,9.864,61.748,9.707
				c20.133-0.09,64.412-6.239,74.203-29.795L192.666,55.234z"/>
			<path style="fill:#393C3D;" d="M187.838,5.48c0,0-19.824-9.33-46.477-3.642c-19.953,4.26-52.423,17.829-59.73,46.893
				c0,0-10.932,47.483,7.683,67.931c0,0-0.916-18.548,0.956-33.313c0,0,22.837,5.593,49.04,5.649
				c27.856,0.056,64.997-4.519,86.951-25.72c0,0,3.294,20.167,3.294,53.385c0,0,5.93-9.111,7.189-21.207
				c2.855-27.44-2.748-65.958-23.292-64.693C213.446,30.756,204.745,13.49,187.838,5.48z"/>
		</g>
		<path style="fill:#3B3B3B;" d="M232.826,100.879c-27.496-9.634-65.115,0.742-65.115,0.742c-3.586,0.882-5.986,1.051-7.228,1.062
			c-0.006,0-1,0-1,0h-1c-1.242-0.011-3.642-0.18-7.234-1.062c0,0-37.619-10.37-65.115-0.742c0,0-0.821,3.867,0,9.139
			c0,0,0.067,0.798,0.956,1.135c0,0,3.001,0.944,3.777,4.002c0,0,1.72,6.891,2.276,10.055c0,0,0.933,6.098,4.277,9.504
			c0,0,2.917,3.732,10.393,5.39c0,0,9.724,2.501,21.836,1.057c0,0,8.65-1.062,13.096-5.238c0,0,4.907-4.204,7.627-12.337
			c0,0,0.849-2.501,2.67-7.931c0,0,0.877-3.704,6.43-3.946c5.559,0.242,6.43,3.946,6.43,3.946c1.821,5.43,2.67,7.931,2.67,7.931
			c2.72,8.139,7.627,12.337,7.627,12.337c4.446,4.176,13.096,5.238,13.096,5.238c12.112,1.444,21.836-1.057,21.836-1.057
			c7.47-1.658,10.393-5.39,10.393-5.39c3.35-3.406,4.277-9.504,4.277-9.504c0.556-3.17,2.276-10.055,2.276-10.055
			c0.776-3.058,3.777-4.002,3.777-4.002c0.888-0.332,0.955-1.135,0.955-1.135C233.646,104.746,232.826,100.879,232.826,100.879z
			 M148.376,115.818c0,0-3.209,14.507-8.6,18.458c0,0-5.216,4.3-15.423,4.474c0,0-15.204,0.663-22.016-4.412
			c0,0-4.485-3.181-5.93-13.293c0,0-1.928-11.815,0.556-15.187c0,0,3.372-5.626,13.574-5.452c0,0,8.689-0.174,15.766,0.528
			c0,0,8.774,0.674,16.57,3.198C142.868,104.122,151.355,106.471,148.376,115.818z M222.551,121.04
			c-1.445,10.111-5.93,13.293-5.93,13.293c-6.812,5.081-22.016,4.412-22.016,4.412c-10.207-0.174-15.423-4.474-15.423-4.474
			c-5.39-3.957-8.6-18.458-8.6-18.458c-2.979-9.347,5.503-11.696,5.503-11.696c7.796-2.524,16.57-3.198,16.57-3.198
			c7.076-0.703,15.766-0.528,15.766-0.528c10.207-0.174,13.574,5.452,13.574,5.452C224.479,109.22,222.551,121.04,222.551,121.04z"
			/>
	</g>
</g>
<g>
</g>
<g>
</g>
<g>
</g>
<g>
</g>
<g>
</g>
<g>
</g>
<g>
</g>
<g>
</g>
<g>
</g>
<g>
</g>
<g>
</g>
<g>
</g>
<g>
</g>
<g>
</g>
<g>
</g>
</svg>
