<?xml version="1.0" encoding="iso-8859-1"?>
<!-- Generator: Adobe Illustrator 19.0.0, SVG Export Plug-In . SVG Version: 6.00 Build 0)  -->
<svg version="1.1" id="Layer_1" xmlns="http://www.w3.org/2000/svg" xmlns:xlink="http://www.w3.org/1999/xlink" x="0px" y="0px"
	 viewBox="0 0 318.543 318.543" style="enable-background:new 0 0 318.543 318.543;" xml:space="preserve">
<g>
	<g>
		<path style="fill:#818181;" d="M82.778,120.197c0,0-36.152-120.197,75.164-120.197s77.66,120.197,77.66,120.197H82.778z"/>
		<path style="fill:#6E6E6E;" d="M221.511,143.758c0,0,24.905,26.13,8.566,67.161c-8.566,21.504,1.22,27.743,1.22,27.743
			s-21.651,4.075-19.194-20.448c0.731-7.296-0.017-9.072-7.071-16.974c-7.054-7.903-14.046-15.53-10.55-33.802L221.511,143.758z"/>
		<path style="fill:#E9E9E9;" d="M295.389,253.096c-10.522-37.754-63.361-33.566-86.164-44.408
			c-22.803-10.842-19.245-47.219-22.134-53.548h-55.638c-2.889,6.329,0.674,42.711-22.134,53.548
			c-22.803,10.842-75.642,6.655-86.164,44.408c-5.806,20.824-5.525,27.187-7.133,50.26c0,0,72.5,15.187,141.611,15.187
			s144.888-15.187,144.888-15.187C300.919,280.283,301.195,273.921,295.389,253.096z"/>
		<path style="fill:#DDDDDD;" d="M179.761,217.001c22.803,10.842,75.642,6.655,86.164,44.408c5.531,19.83,5.542,26.552,6.913,47.073
			c18.155-2.816,29.682-5.126,29.682-5.126c-1.602-23.067-1.326-29.435-7.133-50.26c-10.522-37.754-63.361-33.566-86.164-44.408
			c-22.803-10.842-19.245-47.219-22.134-53.548h-29.458C157.633,155.14,156.953,206.164,179.761,217.001z"/>
		<path style="fill:#C4C4C4;" d="M61.661,311.056c26.675,3.76,61.737,7.487,95.972,7.487c35.326,0,72.388-3.968,100.187-7.846
			c13.383-11.792,33.156-14.361,44.201-14.81c-1.124-17.283-1.506-24.405-6.632-42.79c-9.724-34.887-55.582-33.96-80.482-42.171
			c3.058,17.874-48.877,95.14-55.363,95.14c-6.486,0-58.359-77.829-55.335-95.331c-24.764,8.42-71.253,7.211-81.049,42.363
			c-5.12,18.374-5.508,25.495-6.632,42.767C27.566,296.257,48.065,298.758,61.661,311.056z"/>
		<path style="fill:#BDBDBD;" d="M295.389,253.096c-9.724-34.887-55.582-33.96-80.482-42.171c0.545,3.181-0.658,8.251-3.035,14.434
			c22.662,4.744,47.236,11.601,54.053,36.056c4.89,17.536,5.463,24.821,6.481,40.452c10.747-4.407,22.168-5.677,29.615-5.98
			C300.897,278.597,300.515,271.476,295.389,253.096z"/>
		<path style="fill:#CCCCCC;" d="M123.971,192.736c9.229,7.959,20.054,15.85,35.241,18.132
			c15.237-2.288,26.023-10.342,35.269-18.334c-7.689-14.973-5.311-32.83-7.391-37.4h-55.638
			C129.367,159.71,131.694,177.758,123.971,192.736z"/>
		<g>
			
				<ellipse transform="matrix(-0.177 0.9842 -0.9842 -0.177 380.1026 -81.5687)" style="fill:#DDDDDD;" cx="224.155" cy="118.137" rx="21.386" ry="11.629"/>
			
				<ellipse transform="matrix(-0.9842 0.177 -0.177 -0.9842 207.8558 217.7436)" style="fill:#E9E9E9;" cx="94.216" cy="118.143" rx="11.629" ry="21.386"/>
			<path style="fill:#E9E9E9;" d="M159.735,56.161c0,0-65.874-7.487-66.683,11.927c-0.793,19.02,0.124,21.712-0.028,26.181
				c-1.551,44.156,7.464,104.645,66.171,113.48c62.979-9.476,68.808-77.969,65.727-122.456
				C223.389,63.142,159.735,56.161,159.735,56.161z"/>
			<path style="fill:#DDDDDD;" d="M159.195,207.749c94.331-14.192,60.45-160.806,60.45-160.806h-14.141
				c3.873,61.242,9.229,93.774-13.006,129.24C174.883,204.287,159.195,207.749,159.195,207.749z"/>
			<path style="fill:#DDDDDD;" d="M91.709,96.989c0,0,69.072,15.204,106.157-27.429c0,0,10.23,24.523,27.625,27.552V60.905H91.709
				V96.989z"/>
			<path style="fill:#818181;" d="M228.076,52.266c-8.538-26.355-68.869-31.925-68.881-31.925l0,0l0,0l0,0l0,0
				c-0.011,0-60.343,5.57-68.881,31.925c-8.538,26.361,1.394,44.723,1.394,44.723c20.234,2.383,88.452,0,107.016-35.045
				c6.683,24.95,26.765,35.168,26.765,35.168S236.614,78.627,228.076,52.266z"/>
		</g>
		<path style="fill:#6E6E6E;" d="M231.994,205.602h-23.241c3.586,4.558,3.923,6.885,3.35,12.613
			c-2.456,24.528,19.194,20.448,19.194,20.448s-9.786-6.239-1.22-27.743C230.796,209.121,231.432,207.344,231.994,205.602z"/>
	</g>
</g>
<g>
</g>
<g>
</g>
<g>
</g>
<g>
</g>
<g>
</g>
<g>
</g>
<g>
</g>
<g>
</g>
<g>
</g>
<g>
</g>
<g>
</g>
<g>
</g>
<g>
</g>
<g>
</g>
<g>
</g>
</svg>
