<svg xmlns="http://www.w3.org/2000/svg" viewBox="0 0 781.05 160.161" height="605.333" width="2952"><g style="font-size:31.75px;line-height:1.25;font-family:sans-serif;stroke-width:.264583" aria-label="Ministerium für Schule und Bildung des Landes Nordrhein-Westfalen"><path style="font-style:normal;font-variant:normal;font-weight:700;font-stretch:normal;font-size:31.75px;font-family:sans-serif;-inkscape-font-specification:'sans-serif Bold';stroke-width:.264583" d="M5.182 23.723h7.597l5.27 12.387 5.303-12.387h7.58V46.87H25.29v-16.93l-5.333 12.48h-3.783l-5.333-12.48v16.93H5.182zM36.56 29.506h5.55v17.363h-5.55zm0-6.76h5.55v4.527h-5.55zM64.93 36.296v10.573h-5.58v-8.092q0-2.248-.109-3.101-.093-.853-.34-1.256-.327-.542-.885-.837-.558-.31-1.27-.31-1.737 0-2.73 1.349-.992 1.333-.992 3.705v8.542h-5.55V29.506h5.55v2.542q1.256-1.519 2.667-2.232 1.41-.729 3.116-.729 3.008 0 4.558 1.845 1.566 1.845 1.566 5.364zM70.109 29.506h5.55v17.363h-5.55zm0-6.76h5.55v4.527h-5.55zM94.588 30.048v4.217q-1.783-.744-3.442-1.116-1.659-.372-3.131-.372-1.582 0-2.357.403-.76.388-.76 1.21 0 .666.574 1.022.59.357 2.093.527l.977.14q4.263.543 5.736 1.783 1.473 1.24 1.473 3.891 0 2.775-2.047 4.17-2.046 1.396-6.108 1.396-1.72 0-3.566-.28-1.829-.263-3.767-.806v-4.216q1.659.806 3.395 1.209 1.752.403 3.55.403 1.628 0 2.45-.45.822-.45.822-1.333 0-.744-.574-1.1-.558-.373-2.248-.574l-.977-.124q-3.705-.465-5.193-1.721Q80 37.07 80 34.513q0-2.76 1.89-4.093 1.892-1.333 5.799-1.333 1.535 0 3.225.233 1.69.232 3.674.728zM105.998 24.576v4.93h5.72v3.969h-5.72v7.363q0 1.21.48 1.644.481.418 1.907.418h2.853v3.969h-4.76q-3.286 0-4.666-1.364-1.364-1.38-1.364-4.667v-7.363h-2.76v-3.97h2.76v-4.93zM132.461 38.14v1.582h-12.975q.201 1.954 1.41 2.93 1.21.977 3.38.977 1.752 0 3.581-.512 1.845-.527 3.783-1.581v4.279q-1.97.744-3.938 1.116-1.969.388-3.938.388-4.713 0-7.333-2.388-2.604-2.403-2.604-6.728 0-4.248 2.558-6.682 2.573-2.434 7.07-2.434 4.092 0 6.541 2.465 2.465 2.465 2.465 6.589zm-5.705-1.844q0-1.581-.93-2.542-.914-.977-2.403-.977-1.612 0-2.62.915-1.007.899-1.255 2.604zM149.546 34.234q-.729-.34-1.458-.496-.713-.17-1.441-.17-2.14 0-3.302 1.38-1.148 1.364-1.148 3.922v7.999h-5.55V29.506h5.55v2.852q1.07-1.705 2.45-2.48 1.395-.79 3.333-.79.279 0 .605.03.325.016.945.093zM152.336 29.506h5.55v17.363h-5.55zm0-6.76h5.55v4.527h-5.55zM163.064 40.11V29.506h5.581v1.736q0 1.41-.015 3.55-.016 2.124-.016 2.837 0 2.093.109 3.023.108.915.372 1.334.341.542.884.837.558.294 1.27.294 1.737 0 2.73-1.333.992-1.333.992-3.705v-8.573h5.55v17.363h-5.55v-2.511q-1.256 1.519-2.667 2.247-1.395.714-3.085.714-3.008 0-4.589-1.845-1.566-1.845-1.566-5.364zM201.977 32.39q1.054-1.613 2.496-2.45 1.457-.853 3.193-.853 2.992 0 4.558 1.845 1.566 1.845 1.566 5.364v10.573h-5.581v-9.054q.015-.201.015-.418.016-.217.016-.62 0-1.845-.543-2.667-.542-.837-1.752-.837-1.581 0-2.45 1.302-.852 1.302-.883 3.767v8.527h-5.58v-9.054q0-2.883-.497-3.705-.496-.837-1.767-.837-1.597 0-2.465 1.318-.868 1.302-.868 3.736v8.542h-5.581V29.506h5.58v2.542q1.024-1.473 2.342-2.217 1.333-.744 2.93-.744 1.798 0 3.178.868 1.38.869 2.093 2.434zM241.463 22.746v3.644h-3.07q-1.178 0-1.643.434-.465.418-.465 1.473v1.209h4.743v3.969h-4.743v13.394h-5.55V33.475h-2.76v-3.97h2.76v-1.208q0-2.838 1.58-4.186 1.582-1.365 4.9-1.365zM243.68 40.11V29.506h5.58v1.736q0 1.41-.015 3.55-.015 2.124-.015 2.837 0 2.093.108 3.023.109.915.372 1.334.341.542.884.837.558.294 1.271.294 1.736 0 2.729-1.333.992-1.333.992-3.705v-8.573h5.55v17.363h-5.55v-2.511q-1.256 1.519-2.667 2.247-1.395.714-3.085.714-3.007 0-4.589-1.845-1.566-1.845-1.566-5.364zm3.86-17.813h3.643v3.814h-3.643zm6.123 0h3.644v3.814h-3.644zM279.398 34.234q-.728-.34-1.457-.496-.713-.17-1.442-.17-2.14 0-3.302 1.38-1.147 1.364-1.147 3.922v7.999h-5.55V29.506h5.55v2.852q1.07-1.705 2.45-2.48 1.395-.79 3.332-.79.28 0 .605.03.326.016.946.093zM21.29 64.14v4.898q-1.907-.852-3.72-1.287-1.815-.434-3.427-.434-2.14 0-3.162.59-1.024.589-1.024 1.829 0 .93.682 1.457.698.512 2.512.884l2.542.511q3.86.776 5.488 2.357 1.628 1.581 1.628 4.496 0 3.829-2.279 5.705-2.263 1.86-6.93 1.86-2.2 0-4.418-.418-2.217-.419-4.434-1.24v-5.04q2.217 1.18 4.28 1.784 2.077.589 3.999.589 1.953 0 2.992-.651t1.039-1.86q0-1.086-.713-1.675-.698-.59-2.807-1.054l-2.31-.512q-3.472-.744-5.084-2.372-1.597-1.628-1.597-4.387 0-3.457 2.232-5.318 2.233-1.86 6.418-1.86 1.907 0 3.923.295 2.015.279 4.17.852zM41.847 69.736v4.527q-1.132-.775-2.28-1.147-1.13-.373-2.356-.373-2.325 0-3.627 1.365-1.287 1.348-1.287 3.782t1.287 3.799q1.302 1.348 3.627 1.348 1.303 0 2.465-.387 1.179-.388 2.17-1.147v4.542q-1.301.48-2.65.713-1.333.248-2.682.248-4.698 0-7.349-2.403-2.65-2.418-2.65-6.713 0-4.294 2.65-6.697 2.651-2.418 7.349-2.418 1.364 0 2.682.248 1.333.232 2.65.713zM64.125 75.984v10.573h-5.582V78.495q0-2.279-.108-3.132-.093-.852-.341-1.255-.326-.543-.884-.837-.558-.31-1.271-.31-1.736 0-2.729 1.348-.992 1.333-.992 3.705v8.543h-5.55V62.434h5.55v9.302q1.256-1.52 2.667-2.233 1.41-.728 3.116-.728 3.007 0 4.558 1.845 1.566 1.844 1.566 5.364zM69.116 79.797V69.193h5.582v1.737q0 1.41-.016 3.55-.015 2.124-.015 2.837 0 2.093.108 3.023.109.915.372 1.333.341.543.884.837.558.295 1.271.295 1.736 0 2.729-1.333.992-1.334.992-3.706v-8.573h5.55v17.364h-5.55v-2.512q-1.256 1.52-2.667 2.248-1.395.713-3.085.713-3.007 0-4.589-1.845-1.566-1.845-1.566-5.364zM91.937 62.434h5.55v24.123h-5.55zM120.183 77.828v1.582h-12.976q.202 1.953 1.411 2.93 1.21.976 3.38.976 1.751 0 3.58-.511 1.846-.527 3.783-1.581v4.278q-1.968.744-3.937 1.117-1.97.387-3.938.387-4.713 0-7.333-2.387-2.604-2.403-2.604-6.729 0-4.247 2.558-6.681 2.573-2.434 7.069-2.434 4.093 0 6.542 2.465 2.465 2.465 2.465 6.588zm-5.705-1.844q0-1.582-.93-2.543-.915-.977-2.403-.977-1.612 0-2.62.915-1.008.9-1.256 2.605zM135.221 79.797V69.193h5.581v1.737q0 1.41-.015 3.55-.016 2.124-.016 2.837 0 2.093.109 3.023.108.915.372 1.333.34.543.883.837.558.295 1.272.295 1.736 0 2.728-1.333.992-1.334.992-3.706v-8.573h5.55v17.364h-5.55v-2.512q-1.256 1.52-2.666 2.248-1.396.713-3.085.713-3.008 0-4.59-1.845-1.565-1.845-1.565-5.364zM175.498 75.984v10.573h-5.581v-8.093q0-2.248-.109-3.1-.093-.853-.341-1.256-.326-.543-.884-.837-.558-.31-1.27-.31-1.737 0-2.73 1.348-.992 1.333-.992 3.705v8.543h-5.55V69.193h5.55v2.543q1.256-1.52 2.667-2.233 1.41-.728 3.116-.728 3.008 0 4.558 1.845 1.566 1.844 1.566 5.364zM192.489 71.736v-9.302h5.58v24.123h-5.58v-2.512q-1.147 1.535-2.527 2.248-1.38.713-3.194.713-3.209 0-5.27-2.542-2.063-2.558-2.063-6.574 0-4.015 2.062-6.557 2.062-2.558 5.271-2.558 1.799 0 3.178.728 1.396.713 2.543 2.233zm-3.659 11.24q1.783 0 2.713-1.303.946-1.302.946-3.783 0-2.48-.946-3.782-.93-1.303-2.713-1.303-1.767 0-2.713 1.303-.93 1.302-.93 3.782t.93 3.783q.946 1.302 2.713 1.302zM223.99 72.371q1.412 0 2.14-.62.729-.62.729-1.83 0-1.193-.729-1.813-.728-.636-2.14-.636h-3.301v4.9zm.202 10.124q1.799 0 2.698-.76.914-.76.914-2.294 0-1.504-.899-2.248-.899-.76-2.713-.76h-3.503v6.062zm5.55-8.325q1.923.558 2.977 2.062 1.054 1.503 1.054 3.69 0 3.348-2.263 4.991-2.264 1.644-6.884 1.644h-9.906V63.41h8.96q4.822 0 6.977 1.457 2.17 1.457 2.17 4.666 0 1.69-.79 2.884-.79 1.178-2.295 1.752zM238.657 69.193h5.55v17.364h-5.55zm0-6.759h5.55v4.527h-5.55zM249.57 62.434h5.55v24.123h-5.55zM272.298 71.736v-9.302h5.58v24.123h-5.58v-2.512q-1.147 1.535-2.527 2.248-1.38.713-3.194.713-3.209 0-5.27-2.542-2.063-2.558-2.063-6.574 0-4.015 2.062-6.557 2.062-2.558 5.271-2.558 1.799 0 3.178.728 1.396.713 2.543 2.233zm-3.659 11.24q1.783 0 2.713-1.303.946-1.302.946-3.783 0-2.48-.946-3.782-.93-1.303-2.713-1.303-1.767 0-2.713 1.303-.93 1.302-.93 3.782t.93 3.783q.946 1.302 2.713 1.302zM283.057 79.797V69.193h5.581v1.737q0 1.41-.016 3.55-.015 2.124-.015 2.837 0 2.093.108 3.023.109.915.373 1.333.34.543.883.837.558.295 1.271.295 1.737 0 2.729-1.333.992-1.334.992-3.706v-8.573h5.55v17.364h-5.55v-2.512q-1.256 1.52-2.666 2.248-1.396.713-3.085.713-3.008 0-4.59-1.845-1.565-1.845-1.565-5.364zM323.334 75.984v10.573h-5.582v-8.093q0-2.248-.108-3.1-.093-.853-.341-1.256-.326-.543-.884-.837-.558-.31-1.271-.31-1.736 0-2.729 1.348-.992 1.333-.992 3.705v8.543h-5.55V69.193h5.55v2.543q1.256-1.52 2.667-2.233 1.41-.728 3.116-.728 3.007 0 4.558 1.845 1.566 1.844 1.566 5.364zM340.325 83.611q-1.147 1.52-2.527 2.232-1.38.714-3.194.714-3.178 0-5.255-2.496-2.078-2.512-2.078-6.388 0-3.89 2.078-6.371 2.077-2.496 5.255-2.496 1.814 0 3.194.713t2.527 2.248v-2.574h5.58v15.612q0 4.186-2.65 6.387-2.636 2.217-7.659 2.217-1.627 0-3.147-.248-1.519-.248-3.054-.76v-4.325q1.457.837 2.853 1.24 1.395.419 2.806.419 2.728 0 4-1.194 1.27-1.194 1.27-3.736zm-3.659-10.806q-1.72 0-2.682 1.272-.961 1.27-.961 3.596 0 2.388.93 3.628.93 1.225 2.713 1.225 1.736 0 2.698-1.271.96-1.272.96-3.582 0-2.325-.96-3.596-.962-1.272-2.698-1.272zM16.748 111.423v-9.302h5.58v24.123h-5.58v-2.511q-1.148 1.534-2.527 2.248-1.38.713-3.194.713-3.21 0-5.271-2.543-2.062-2.558-2.062-6.573 0-4.015 2.062-6.558 2.062-2.558 5.271-2.558 1.798 0 3.178.729 1.395.713 2.543 2.232zm-3.66 11.24q1.784 0 2.714-1.302.946-1.303.946-3.783t-.946-3.783q-.93-1.302-2.713-1.302-1.767 0-2.713 1.302-.93 1.302-.93 3.783 0 2.48.93 3.783.946 1.302 2.713 1.302zM45.025 117.516v1.581H32.049q.202 1.954 1.41 2.93 1.21.977 3.38.977 1.752 0 3.582-.512 1.844-.527 3.782-1.581v4.279q-1.969.744-3.937 1.116-1.97.388-3.938.388-4.713 0-7.333-2.388-2.605-2.403-2.605-6.728 0-4.248 2.558-6.682 2.574-2.434 7.07-2.434 4.093 0 6.542 2.465 2.465 2.465 2.465 6.589zm-5.705-1.845q0-1.581-.93-2.542-.915-.977-2.403-.977-1.613 0-2.62.915-1.008.899-1.256 2.604zM62.776 109.423v4.217q-1.783-.744-3.442-1.116-1.659-.372-3.131-.372-1.582 0-2.357.403-.76.388-.76 1.21 0 .666.574 1.022.59.357 2.093.527l.977.14q4.263.543 5.736 1.783 1.473 1.24 1.473 3.891 0 2.775-2.047 4.17-2.046 1.396-6.108 1.396-1.72 0-3.566-.28-1.83-.263-3.767-.806v-4.216q1.659.806 3.395 1.209 1.752.403 3.55.403 1.628 0 2.45-.45.822-.45.822-1.333 0-.744-.574-1.1-.558-.373-2.248-.574l-.977-.124q-3.705-.465-5.193-1.721-1.488-1.256-1.488-3.814 0-2.76 1.89-4.093 1.892-1.333 5.799-1.333 1.535 0 3.225.233 1.69.232 3.674.728zM79.41 103.098h5.97v18.635h10.479v4.511H79.41zM107.16 118.43q-1.736 0-2.62.59-.867.589-.867 1.736 0 1.054.697 1.659.713.589 1.969.589 1.566 0 2.636-1.116 1.07-1.132 1.07-2.822v-.635zm8.48-2.092v9.906h-5.596v-2.573q-1.116 1.58-2.511 2.31-1.396.713-3.395.713-2.698 0-4.388-1.566-1.674-1.581-1.674-4.093 0-3.054 2.093-4.48 2.108-1.427 6.604-1.427h3.271v-.434q0-1.317-1.038-1.922-1.04-.62-3.24-.62-1.783 0-3.318.356-1.535.357-2.853 1.07v-4.232q1.783-.434 3.581-.651 1.799-.233 3.597-.233 4.697 0 6.775 1.86 2.093 1.845 2.093 6.016zM138.29 115.671v10.573h-5.58v-8.092q0-2.248-.109-3.101-.093-.853-.341-1.256-.326-.542-.884-.837-.558-.31-1.271-.31-1.736 0-2.728 1.349-.993 1.333-.993 3.705v8.542h-5.55v-17.363h5.55v2.542q1.256-1.519 2.667-2.232 1.41-.729 3.116-.729 3.007 0 4.558 1.845 1.566 1.845 1.566 5.364zM155.282 111.423v-9.302h5.58v24.123h-5.58v-2.511q-1.147 1.534-2.527 2.248-1.38.713-3.194.713-3.209 0-5.27-2.543-2.063-2.558-2.063-6.573 0-4.015 2.062-6.558 2.062-2.558 5.271-2.558 1.799 0 3.178.729 1.396.713 2.543 2.232zm-3.659 11.24q1.783 0 2.713-1.302.946-1.303.946-3.783t-.946-3.783q-.93-1.302-2.713-1.302-1.767 0-2.713 1.302-.93 1.302-.93 3.783 0 2.48.93 3.783.946 1.302 2.713 1.302zM183.56 117.516v1.581h-12.977q.202 1.954 1.41 2.93 1.21.977 3.38.977 1.752 0 3.582-.512 1.845-.527 3.782-1.581v4.279q-1.968.744-3.937 1.116-1.97.388-3.938.388-4.713 0-7.333-2.388-2.604-2.403-2.604-6.728 0-4.248 2.558-6.682 2.573-2.434 7.069-2.434 4.093 0 6.542 2.465 2.465 2.465 2.465 6.589zm-5.706-1.845q0-1.581-.93-2.542-.915-.977-2.403-.977-1.612 0-2.62.915-1.008.899-1.256 2.604zM201.31 109.423v4.217q-1.783-.744-3.442-1.116-1.658-.372-3.131-.372-1.582 0-2.357.403-.76.388-.76 1.21 0 .666.574 1.022.59.357 2.093.527l.977.14q4.263.543 5.736 1.783 1.473 1.24 1.473 3.891 0 2.775-2.047 4.17-2.046 1.396-6.108 1.396-1.72 0-3.566-.28-1.829-.263-3.767-.806v-4.216q1.66.806 3.395 1.209 1.752.403 3.55.403 1.628 0 2.45-.45.822-.45.822-1.333 0-.744-.574-1.1-.558-.373-2.248-.574l-.977-.124q-3.705-.465-5.193-1.721-1.488-1.256-1.488-3.814 0-2.76 1.891-4.093 1.891-1.333 5.798-1.333 1.535 0 3.225.233 1.69.232 3.674.728zM217.945 103.098h6.666l8.418 15.875v-15.875h5.659v23.146h-6.667l-8.418-15.875v15.875h-5.658zM252.563 112.43q-1.845 0-2.822 1.334-.961 1.318-.961 3.814t.961 3.83q.977 1.317 2.822 1.317 1.814 0 2.775-1.318.96-1.333.96-3.83 0-2.495-.96-3.813-.962-1.333-2.775-1.333zm0-3.968q4.48 0 6.991 2.419 2.527 2.418 2.527 6.697t-2.527 6.697q-2.511 2.419-6.991 2.419-4.496 0-7.039-2.419-2.527-2.418-2.527-6.697t2.527-6.697q2.543-2.419 7.039-2.419zM279.026 113.61q-.728-.342-1.457-.497-.713-.17-1.442-.17-2.14 0-3.302 1.38-1.147 1.364-1.147 3.922v8h-5.55V108.88h5.55v2.852q1.07-1.705 2.45-2.48 1.394-.79 3.332-.79.28 0 .605.03.326.016.946.093zM293.63 111.423v-9.302h5.581v24.123h-5.581v-2.511q-1.147 1.534-2.527 2.248-1.38.713-3.194.713-3.209 0-5.27-2.543-2.063-2.558-2.063-6.573 0-4.015 2.062-6.558 2.062-2.558 5.271-2.558 1.799 0 3.178.729 1.396.713 2.543 2.232zm-3.659 11.24q1.783 0 2.713-1.302.946-1.303.946-3.783t-.946-3.783q-.93-1.302-2.713-1.302-1.767 0-2.713 1.302-.93 1.302-.93 3.783 0 2.48.93 3.783.946 1.302 2.713 1.302zM317.473 113.61q-.728-.342-1.457-.497-.713-.17-1.442-.17-2.139 0-3.302 1.38-1.147 1.364-1.147 3.922v8h-5.55V108.88h5.55v2.852q1.07-1.705 2.45-2.48 1.395-.79 3.333-.79.279 0 .604.03.326.016.946.093zM337.72 115.671v10.573h-5.58v-8.061q0-2.28-.11-3.132-.092-.853-.34-1.256-.326-.542-.884-.837-.558-.31-1.271-.31-1.737 0-2.729 1.349-.992 1.333-.992 3.705v8.542h-5.55v-24.123h5.55v9.302q1.256-1.519 2.667-2.232 1.41-.729 3.116-.729 3.007 0 4.557 1.845 1.566 1.845 1.566 5.364zM360.23 117.516v1.581h-12.975q.201 1.954 1.41 2.93 1.21.977 3.38.977 1.752 0 3.581-.512 1.845-.527 3.783-1.581v4.279q-1.969.744-3.938 1.116-1.969.388-3.938.388-4.713 0-7.333-2.388-2.604-2.403-2.604-6.728 0-4.248 2.558-6.682 2.573-2.434 7.07-2.434 4.092 0 6.542 2.465 2.464 2.465 2.464 6.589zm-5.705-1.845q0-1.581-.93-2.542-.914-.977-2.403-.977-1.612 0-2.62.915-1.007.899-1.255 2.604zM364.416 108.88h5.55v17.364h-5.55zm0-6.759h5.55v4.527h-5.55zM392.787 115.671v10.573h-5.581v-8.092q0-2.248-.109-3.101-.093-.853-.341-1.256-.326-.542-.884-.837-.558-.31-1.27-.31-1.737 0-2.73 1.349-.992 1.333-.992 3.705v8.542h-5.55v-17.363h5.55v2.542q1.256-1.519 2.667-2.232 1.41-.729 3.116-.729 3.008 0 4.558 1.845 1.566 1.845 1.566 5.364zM397.019 114.85h9.736v4.51h-9.736zM408.026 103.098h5.72l4 16.82 3.97-16.82h5.75l3.97 16.82 4-16.82h5.673l-5.457 23.146h-6.883l-4.201-17.596-4.155 17.596h-6.883zM461 117.516v1.581h-12.976q.201 1.954 1.41 2.93 1.21.977 3.38.977 1.752 0 3.581-.512 1.845-.527 3.783-1.581v4.279q-1.969.744-3.938 1.116-1.969.388-3.938.388-4.712 0-7.332-2.388-2.605-2.403-2.605-6.728 0-4.248 2.558-6.682 2.573-2.434 7.07-2.434 4.092 0 6.542 2.465 2.465 2.465 2.465 6.589zm-5.706-1.845q0-1.581-.93-2.542-.914-.977-2.403-.977-1.612 0-2.62.915-1.007.899-1.255 2.604zM478.75 109.423v4.217q-1.782-.744-3.441-1.116-1.66-.372-3.132-.372-1.581 0-2.356.403-.76.388-.76 1.21 0 .666.574 1.022.589.357 2.093.527l.976.14q4.264.543 5.736 1.783 1.473 1.24 1.473 3.891 0 2.775-2.046 4.17-2.047 1.396-6.108 1.396-1.721 0-3.566-.28-1.83-.263-3.767-.806v-4.216q1.659.806 3.395 1.209 1.752.403 3.55.403 1.628 0 2.45-.45.821-.45.821-1.333 0-.744-.573-1.1-.559-.373-2.248-.574l-.977-.124q-3.705-.465-5.194-1.721-1.488-1.256-1.488-3.814 0-2.76 1.892-4.093 1.89-1.333 5.798-1.333 1.534 0 3.224.233 1.69.232 3.674.728zM490.16 103.95v4.93h5.721v3.97h-5.72v7.363q0 1.21.48 1.644.48.418 1.907.418h2.853v3.969h-4.76q-3.286 0-4.666-1.364-1.364-1.38-1.364-4.667v-7.363h-2.76v-3.97h2.76v-4.93zM510.717 102.121v3.644h-3.07q-1.177 0-1.642.434-.466.418-.466 1.473v1.209h4.744v3.969h-4.744v13.394h-5.55V112.85h-2.76v-3.97h2.76v-1.208q0-2.838 1.582-4.186 1.581-1.365 4.899-1.365zM520.903 118.43q-1.736 0-2.62.59-.868.589-.868 1.736 0 1.054.697 1.659.713.589 1.97.589 1.565 0 2.635-1.116 1.07-1.132 1.07-2.822v-.635zm8.48-2.092v9.906h-5.597v-2.573q-1.116 1.58-2.511 2.31-1.395.713-3.395.713-2.698 0-4.388-1.566-1.674-1.581-1.674-4.093 0-3.054 2.093-4.48 2.108-1.427 6.604-1.427h3.271v-.434q0-1.317-1.038-1.922-1.039-.62-3.24-.62-1.783 0-3.318.356-1.535.357-2.853 1.07v-4.232q1.783-.434 3.582-.651 1.798-.233 3.596-.233 4.698 0 6.775 1.86 2.093 1.845 2.093 6.016zM534.576 102.121h5.55v24.123h-5.55zM562.823 117.516v1.581h-12.976q.201 1.954 1.41 2.93 1.21.977 3.38.977 1.752 0 3.581-.512 1.845-.527 3.783-1.581v4.279q-1.969.744-3.938 1.116-1.968.388-3.937.388-4.713 0-7.333-2.388-2.605-2.403-2.605-6.728 0-4.248 2.558-6.682 2.574-2.434 7.07-2.434 4.092 0 6.542 2.465 2.465 2.465 2.465 6.589zm-5.705-1.845q0-1.581-.93-2.542-.915-.977-2.403-.977-1.613 0-2.62.915-1.008.899-1.256 2.604zM584.465 115.671v10.573h-5.581v-8.092q0-2.248-.109-3.101-.093-.853-.34-1.256-.326-.542-.884-.837-.559-.31-1.272-.31-1.736 0-2.728 1.349-.992 1.333-.992 3.705v8.542h-5.55v-17.363h5.55v2.542q1.255-1.519 2.666-2.232 1.41-.729 3.116-.729 3.008 0 4.558 1.845 1.566 1.845 1.566 5.364z"/></g><path d="M9832.88 9832.75H167.258V167.211H9832.88V9832.75" style="fill:#fff;fill-opacity:1;fill-rule:evenodd;stroke:none" transform="matrix(.0147 0 0 -.01576 633.284 158.954)"/><path d="M9832.88 9832.75H167.258V167.211H9832.88zM10000 0H0v10000h10000V0" style="fill:#231f20;fill-opacity:1;fill-rule:evenodd;stroke:none" transform="matrix(.0147 0 0 -.01576 633.284 158.954)"/><path d="M5954.42 2055.72c13.07 113.01-4.88 227.83-51.8 331.49-113.56 12.6-228.88-6.04-332.69-53.88 65.81-66.18 109.97-147.02 117.18-240.74 93.01 23.99 184.12 6.23 267.31-36.87zm-529.93-864.45c0 215.88-175.11 390.92-391.01 390.92-215.93 0-390.93-175.04-390.93-390.92 0-215.969 175-390.899 390.93-390.899 215.97 0 391.01 174.93 391.01 390.899zm-1046.14 899.99c5.96 95.81 50.97 177.07 117.65 242.74-103.41 47.34-218.17 65.79-331.18 53.21-47.11-104.16-65.04-219.56-51.64-333.08 83.33 42.1 173.87 59.13 265.17 37.13zm-597.69-1058.21c-76.94-83.718-129.9-187.21-152.86-298.57 84.02-76.64 187.68-129.179 299.18-151.699-15.21 91.84-4.16 183.34 46.51 263.981-88.43 35.527-151.12 103.07-192.83 186.288zm2504.96 1.2c77.54-84 130.91-187.898 154.01-299.789-84.04-76.641-187.77-129.18-299.17-151.719 15.28 92.457 4.01 184.559-47.59 265.629 86.89 35.809 150.12 102.781 192.75 185.879zM374.762 5027.86c704.528 461.31 1542.918 795.51 2104.808 1497.25 710.87 887.6 809.72 2072.28 1252.51 3100.14H374.762zm4065.948 172.75c180.66 232.63 328.61 481.42 459.02 738.97v-657.05c-.15-2577.15-1997.19-4696.678-4524.968-4892.8v32.352C730.938 1318.77 950.469 2280.72 1568.26 3041.46c775.18 954.85 2143.68 1219.86 2872.45 2159.15" style="fill:#00a650;fill-opacity:1;fill-rule:evenodd;stroke:none" transform="matrix(.0147 0 0 -.01576 633.284 158.954)"/><path d="M5033.48 579.582c-337.82 0-611.7 273.789-611.7 611.688 0 337.75 273.88 611.7 611.7 611.7 337.86 0 611.73-273.95 611.73-611.7 0-337.899-273.87-611.688-611.73-611.688zM5595.1 1856.71c-46.6-2.44-89.9 29.01-101.97 74.06 126.41 246.51-141.89 452.11-459.37 452.11-317.6 0-585.87-205.6-459.41-452.11-12.16-45.05-55.51-76.5-102.09-74.06-195.28 196.41-473.68 4.82-571.77-297.13-98.17-302.13 14.4-620.689 287.88-576.65 39.08-25.469 55.61-76.379 38.95-119.899-190-96.211-176.91-309.879-44.07-488.332h1700.94c132.82 178.473 145.87 392.071-44.09 488.192-16.68 43.66-.14 94.57 38.97 120.039 273.45-44.129 386.07 274.52 287.94 576.44-98.19 302.11-376.54 493.68-571.91 297.34zm1951.77 6240.41c155.63-259.12 550.84.34 550.84.34s-478.9 453.6-550.84-.34zm2078.55 1528.13H8524.05c89.86-76.61 184.73-183.24 243.59-323.09 102.63-244.42 37.54-396.21-7.7-515.95 62.59-98.56 325.11-99.5 355.85 153.26 12.19 99.49 10.39 216.78-27.45 352.6 155.05-16.82 331.93-46.19 537.08-73.42zm-343.69-2122.21c-134.65-380.21-312.99-447.3-562.37-447.3-650.06 0-1174.46 109.24-1261.62-180.19-146.9-488.34-824.22-181.99-824.22-181.99l165.69 120.69c13.62-1.67 27.66-2.56 41.89-2.56 125.43 0 227.06 66.07 227.06 147.59 0 81.53-101.7 147.59-227.06 147.59-125.29.01-226.94-66.05-226.94-147.57 0-5.07.39-10.04 1.25-14.92l-155.56-112.89c-200.47 0-235.23 156.89-240.48 231.45 79.36-.12 138.66 65.66 138.66 146.84 0 81.06-59.3 146.85-132.48 146.85 3.01 59.91 36.74 183.67 180.24 297.66l1155.66 917.24c167.53 132.99 501.51 311.72 649.97 388.62-14.36 200.67 43.2 452.33 67.12 665.1H5100.42V6200.91h393.12l1359.64-1066.59c-242.19-273.39-443.1-593.29-536.18-1000.25l-724.07 1347.15c-213.1 0-388.14-81.01-492.3-223.86 3.5-688.61 149.6-1344.01 410.12-1938.39l1053.92 354.33c38.69 1569.56 1842.16 1932.59 2119.06 3078.8 386.27 0 626.94 114.25 813.77 480.82 48.42 94.94 25.78 318.15-215.77 270.12zM7484.92 2347.53l-663.56 35.97c483.77-1089 1643.38-1148.59 2329.78-1933.758C7746.45 698.172 6546.23 1546.1 5824.87 2718.79c6.63 7.1 13.21 14.22 20.21 21.18l1647.93-88.93c229.98-12.4 437.96 156.33 515.04 368.91 171.1 57.98 275.31-157.73 169.54-315.77-113.34-169.23-352.33-375.04-692.67-356.65" style="fill:#ed1c24;fill-opacity:1;fill-rule:evenodd;stroke:none" transform="matrix(.0147 0 0 -.01576 633.284 158.954)"/></svg>