<?xml version="1.0" encoding="UTF-8" standalone="no"?>
<svg
   xmlns:dc="http://purl.org/dc/elements/1.1/"
   xmlns:cc="http://creativecommons.org/ns#"
   xmlns:rdf="http://www.w3.org/1999/02/22-rdf-syntax-ns#"
   xmlns:svg="http://www.w3.org/2000/svg"
   xmlns="http://www.w3.org/2000/svg"
   xmlns:sodipodi="http://sodipodi.sourceforge.net/DTD/sodipodi-0.dtd"
   xmlns:inkscape="http://www.inkscape.org/namespaces/inkscape"
   inkscape:version="1.0 (4035a4fb49, 2020-05-01)"
   sodipodi:docname="Wappenzeichen_NRW_grey.svg"
   version="1.1"
   id="svg2"
   xml:space="preserve"
   width="1333.3333"
   height="1333.3333"
   viewBox="0 0 1333.3333 1333.3333"><sodipodi:namedview
     inkscape:current-layer="g12"
     inkscape:window-maximized="0"
     inkscape:window-y="100"
     inkscape:window-x="2096"
     inkscape:cy="666.66663"
     inkscape:cx="666.66663"
     inkscape:zoom="0.63750004"
     showgrid="false"
     id="namedview69"
     inkscape:window-height="1014"
     inkscape:window-width="1581"
     inkscape:pageshadow="2"
     inkscape:pageopacity="0"
     guidetolerance="10"
     gridtolerance="10"
     objecttolerance="10"
     borderopacity="1"
     bordercolor="#666666"
     pagecolor="#ffffff" /><metadata
     id="metadata8"><rdf:RDF><cc:Work
         rdf:about=""><dc:format>image/svg+xml</dc:format><dc:type
           rdf:resource="http://purl.org/dc/dcmitype/StillImage" /><dc:title></dc:title></cc:Work></rdf:RDF></metadata><defs
     id="defs6"><filter
       id="filter237"
       inkscape:label="Greyscale"
       style="color-interpolation-filters:sRGB;"><feColorMatrix
         result="fbSourceGraphic"
         id="feColorMatrix235"
         values="-1.38554 -1.44578 -1.44578 0.963855 0 -1.38554 -1.44578 -1.44578 0.963855 0 -1.38554 -1.44578 -1.44578 0.963855 0 0 0 0 1 0 " /><feColorMatrix
         id="feColorMatrix259"
         values="0 0 0 -1 0 0 0 0 -1 0 0 0 0 -1 0 0 0 0 1 0"
         in="fbSourceGraphic"
         result="fbSourceGraphicAlpha" /><feColorMatrix
         result="fbSourceGraphic"
         in="fbSourceGraphic"
         values="-1.38554 -1.44578 -1.44578 -2.71084 0 -1.38554 -1.44578 -1.44578 -2.71084 0 -1.38554 -1.44578 -1.44578 -2.71084 0 0 0 0 1 0 "
         id="feColorMatrix261" /><feColorMatrix
         id="feColorMatrix267"
         values="0 0 0 -1 0 0 0 0 -1 0 0 0 0 -1 0 0 0 0 1 0"
         in="fbSourceGraphic"
         result="fbSourceGraphicAlpha" /><feColorMatrix
         result="fbSourceGraphic"
         in="fbSourceGraphic"
         values="-1.38554 -1.44578 -1.44578 -2.40964 0 -1.38554 -1.44578 -1.44578 -2.40964 0 -1.38554 -1.44578 -1.44578 -2.40964 0 0 0 0 1 0 "
         id="feColorMatrix269" /><feColorMatrix
         id="feColorMatrix275"
         values="0 0 0 -1 0 0 0 0 -1 0 0 0 0 -1 0 0 0 0 1 0"
         in="fbSourceGraphic"
         result="fbSourceGraphicAlpha" /><feColorMatrix
         result="fbSourceGraphic"
         in="fbSourceGraphic"
         values="-1.38554 -1.44578 -1.44578 -1.26506 0 -1.38554 -1.44578 -1.44578 -1.26506 0 -1.38554 -1.44578 -1.44578 -1.26506 0 0 0 0 1 0 "
         id="feColorMatrix277" /><feColorMatrix
         id="feColorMatrix391"
         values="0 0 0 -1 0 0 0 0 -1 0 0 0 0 -1 0 0 0 0 1 0"
         in="fbSourceGraphic"
         result="fbSourceGraphicAlpha" /><feColorMatrix
         in="fbSourceGraphic"
         values="-2.95181 -1.68675 -3.55422 0.542169 0 -2.95181 -1.68675 -3.55422 0.542169 0 -2.95181 -1.68675 -3.55422 0.542169 0 0 0 0 1 0 "
         id="feColorMatrix393" /></filter><filter
       id="filter325"
       inkscape:label="Greyscale"
       style="color-interpolation-filters:sRGB;"><feColorMatrix
         result="fbSourceGraphic"
         id="feColorMatrix323"
         values="0.481928 0.481928 -1.92771 1.08434 0 0.481928 0.481928 -1.92771 1.08434 0 0.481928 0.481928 -1.92771 1.08434 0 0 0 0 1 0 " /><feColorMatrix
         id="feColorMatrix327"
         values="0 0 0 -1 0 0 0 0 -1 0 0 0 0 -1 0 0 0 0 1 0"
         in="fbSourceGraphic"
         result="fbSourceGraphicAlpha" /><feColorMatrix
         result="fbSourceGraphic"
         in="fbSourceGraphic"
         values="0.481928 0.481928 -1.92771 1.08434 0 0.481928 0.481928 -1.92771 1.08434 0 0.481928 0.481928 -1.92771 1.08434 0 0 0 0 1 0 "
         id="feColorMatrix329" /><feColorMatrix
         id="feColorMatrix343"
         values="0 0 0 -1 0 0 0 0 -1 0 0 0 0 -1 0 0 0 0 1 0"
         in="fbSourceGraphic"
         result="fbSourceGraphicAlpha" /><feColorMatrix
         in="fbSourceGraphic"
         values="0.481928 0.481928 -2.04819 1.08434 0 0.481928 0.481928 -2.04819 1.08434 0 0.481928 0.481928 -2.04819 1.08434 0 0 0 0 1 0 "
         id="feColorMatrix345" /></filter></defs><g
     id="g10"
     transform="matrix(1.3333333,0,0,-1.3333333,0,1333.3333)"><g
       id="g12"
       transform="scale(0.1)"><path
         d="M 9832.88,9832.75 H 167.258 V 167.211 H 9832.88 V 9832.75"
         style="fill:#ffffff;fill-opacity:1;fill-rule:evenodd;stroke:none"
         id="path14" /><path
         d="M 9832.88,9832.75 H 167.258 V 167.211 H 9832.88 Z M 10000,0 H 0 V 10000 H 10000 V 0"
         style="fill:#231f20;fill-opacity:1;fill-rule:evenodd;stroke:none"
         id="path16" /><path
         d="m 5954.42,2055.72 c 13.07,113.01 -4.88,227.83 -51.8,331.49 -113.56,12.6 -228.88,-6.04 -332.69,-53.88 65.81,-66.18 109.97,-147.02 117.18,-240.74 93.01,23.99 184.12,6.23 267.31,-36.87 z m -529.93,-864.45 c 0,215.88 -175.11,390.92 -391.01,390.92 -215.93,0 -390.93,-175.04 -390.93,-390.92 0,-215.969 175,-390.899 390.93,-390.899 215.97,0 391.01,174.93 391.01,390.899 z m -1046.14,899.99 c 5.96,95.81 50.97,177.07 117.65,242.74 -103.41,47.34 -218.17,65.79 -331.18,53.21 -47.11,-104.16 -65.04,-219.56 -51.64,-333.08 83.33,42.1 173.87,59.13 265.17,37.13 z M 3780.66,1033.05 c -76.94,-83.718 -129.9,-187.21 -152.86,-298.57 84.02,-76.64 187.68,-129.179 299.18,-151.699 -15.21,91.84 -4.16,183.34 46.51,263.981 -88.43,35.527 -151.12,103.07 -192.83,186.288 z m 2504.96,1.2 c 77.54,-84 130.91,-187.898 154.01,-299.789 -84.04,-76.641 -187.77,-129.18 -299.17,-151.719 15.28,92.457 4.01,184.559 -47.59,265.629 86.89,35.809 150.12,102.781 192.75,185.879 z M 374.762,5027.86 c 704.528,461.31 1542.918,795.51 2104.808,1497.25 710.87,887.6 809.72,2072.28 1252.51,3100.14 H 374.762 Z m 4065.948,172.75 c 180.66,232.63 328.61,481.42 459.02,738.97 V 5282.53 C 4899.58,2705.38 2902.54,585.852 374.762,389.73 v 32.352 C 730.938,1318.77 950.469,2280.72 1568.26,3041.46 c 775.18,954.85 2143.68,1219.86 2872.45,2159.15"
         style="fill:#00a650;fill-opacity:1;fill-rule:evenodd;stroke:none;filter:url(#filter325)"
         id="path18" /><path
         d="m 5033.48,579.582 c -337.82,0 -611.7,273.789 -611.7,611.688 0,337.75 273.88,611.7 611.7,611.7 337.86,0 611.73,-273.95 611.73,-611.7 0,-337.899 -273.87,-611.688 -611.73,-611.688 z M 5595.1,1856.71 c -46.6,-2.44 -89.9,29.01 -101.97,74.06 126.41,246.51 -141.89,452.11 -459.37,452.11 -317.6,0 -585.87,-205.6 -459.41,-452.11 -12.16,-45.05 -55.51,-76.5 -102.09,-74.06 -195.28,196.41 -473.68,4.82 -571.77,-297.13 -98.17,-302.13 14.4,-620.689 287.88,-576.65 39.08,-25.469 55.61,-76.379 38.95,-119.899 -190,-96.211 -176.91,-309.879 -44.07,-488.332 h 1700.94 c 132.82,178.473 145.87,392.071 -44.09,488.192 -16.68,43.66 -0.14,94.57 38.97,120.039 273.45,-44.129 386.07,274.52 287.94,576.44 -98.19,302.11 -376.54,493.68 -571.91,297.34 z m 1951.77,6240.41 c 155.63,-259.12 550.84,0.34 550.84,0.34 0,0 -478.9,453.6 -550.84,-0.34 z M 9625.42,9625.25 H 8524.05 c 89.86,-76.61 184.73,-183.24 243.59,-323.09 102.63,-244.42 37.54,-396.21 -7.7,-515.95 62.59,-98.56 325.11,-99.5 355.85,153.26 12.19,99.49 10.39,216.78 -27.45,352.6 155.05,-16.82 331.93,-46.19 537.08,-73.42 z M 9281.73,7503.04 c -134.65,-380.21 -312.99,-447.3 -562.37,-447.3 -650.06,0 -1174.46,109.24 -1261.62,-180.19 -146.9,-488.34 -824.22,-181.99 -824.22,-181.99 l 165.69,120.69 c 13.62,-1.67 27.66,-2.56 41.89,-2.56 125.43,0 227.06,66.07 227.06,147.59 0,81.53 -101.7,147.59 -227.06,147.59 -125.29,0.01 -226.94,-66.05 -226.94,-147.57 0,-5.07 0.39,-10.04 1.25,-14.92 l -155.56,-112.89 c -200.47,0 -235.23,156.89 -240.48,231.45 79.36,-0.12 138.66,65.66 138.66,146.84 0,81.06 -59.3,146.85 -132.48,146.85 3.01,59.91 36.74,183.67 180.24,297.66 l 1155.66,917.24 c 167.53,132.99 501.51,311.72 649.97,388.62 -14.36,200.67 43.2,452.33 67.12,665.1 H 5100.42 V 6200.91 h 393.12 L 6853.18,5134.32 C 6610.99,4860.93 6410.08,4541.03 6317,4134.07 l -724.07,1347.15 c -213.1,0 -388.14,-81.01 -492.3,-223.86 3.5,-688.61 149.6,-1344.01 410.12,-1938.39 l 1053.92,354.33 c 38.69,1569.56 1842.16,1932.59 2119.06,3078.8 386.27,0 626.94,114.25 813.77,480.82 48.42,94.94 25.78,318.15 -215.77,270.12 z M 7484.92,2347.53 6821.36,2383.5 C 7305.13,1294.5 8464.74,1234.91 9151.14,449.742 7746.45,698.172 6546.23,1546.1 5824.87,2718.79 c 6.63,7.1 13.21,14.22 20.21,21.18 l 1647.93,-88.93 c 229.98,-12.4 437.96,156.33 515.04,368.91 171.1,57.98 275.31,-157.73 169.54,-315.77 -113.34,-169.23 -352.33,-375.04 -692.67,-356.65"
         style="fill:#ed1c24;fill-opacity:1;fill-rule:evenodd;stroke:none;filter:url(#filter237)"
         id="path20" /></g></g></svg>
