<svg width="1179" height="256" viewBox="0 0 1179 256" fill="none" xmlns="http://www.w3.org/2000/svg">
<g clip-path="url(#clip0_504_34)">
<rect width="256" height="256" rx="51" fill="#2285D5"/>
<path d="M124.362 76H151.22V147.337C151.22 155.581 149.245 162.763 145.294 168.883C141.343 174.968 135.834 179.684 128.766 183.032C121.698 186.344 113.489 188 104.137 188C94.6771 188 86.4132 186.344 79.3453 183.032C72.2775 179.684 66.7863 174.968 62.8718 168.883C58.9573 162.763 57 155.581 57 147.337V76H83.9122V145.014C83.9122 148.831 84.7459 152.233 86.4132 155.221C88.1167 158.209 90.4908 160.549 93.5354 162.241C96.58 163.933 100.114 164.779 104.137 164.779C108.16 164.779 111.676 163.933 114.685 162.241C117.729 160.549 120.103 158.209 121.807 155.221C123.51 152.233 124.362 148.831 124.362 145.014V76Z" fill="white"/>
<path d="M195 76V186.596H168.088V76H195Z" fill="white"/>
<path d="M366.938 108.939C366.584 105.049 365.011 102.026 362.217 99.869C359.459 97.6766 355.516 96.5804 350.389 96.5804C346.994 96.5804 344.166 97.0224 341.902 97.9065C339.639 98.7905 337.942 100.01 336.811 101.566C335.679 103.087 335.096 104.837 335.06 106.817C334.989 108.444 335.308 109.876 336.015 111.114C336.758 112.351 337.818 113.448 339.197 114.402C340.612 115.322 342.309 116.135 344.289 116.842C346.27 117.549 348.497 118.168 350.973 118.699L360.308 120.82C365.683 121.987 370.421 123.543 374.523 125.488C378.66 127.433 382.125 129.749 384.919 132.436C387.748 135.124 389.887 138.218 391.337 141.718C392.787 145.219 393.529 149.144 393.565 153.494C393.529 160.354 391.797 166.241 388.367 171.156C384.937 176.071 380.004 179.837 373.568 182.454C367.168 185.071 359.441 186.379 350.389 186.379C341.301 186.379 333.381 185.018 326.627 182.295C319.873 179.572 314.622 175.435 310.873 169.883C307.125 164.332 305.198 157.313 305.092 148.826H330.233C330.446 152.327 331.383 155.244 333.045 157.578C334.707 159.912 336.987 161.68 339.887 162.882C342.822 164.084 346.217 164.685 350.071 164.685C353.607 164.685 356.613 164.208 359.088 163.253C361.598 162.298 363.526 160.972 364.869 159.275C366.213 157.578 366.903 155.633 366.938 153.441C366.903 151.39 366.266 149.639 365.028 148.189C363.791 146.704 361.881 145.431 359.3 144.37C356.754 143.274 353.501 142.267 349.54 141.347L338.19 138.695C328.784 136.538 321.376 133.055 315.965 128.246C310.555 123.402 307.868 116.86 307.903 108.621C307.868 101.902 309.671 96.0147 313.313 90.9581C316.955 85.9015 321.994 81.9588 328.43 79.1299C334.866 76.301 342.203 74.8866 350.442 74.8866C358.858 74.8866 366.16 76.3187 372.348 79.1829C378.572 82.0118 383.398 85.9899 386.828 91.1172C390.258 96.2445 392.009 102.185 392.079 108.939H366.938ZM431.489 76.3718L455.782 155.933H456.683L480.976 76.3718H510.361L473.71 185H438.756L402.104 76.3718H431.489ZM548.1 185L516.487 76.3718H545.501L561.891 147.553H562.792L581.516 76.3718H605.172L623.896 147.712H624.797L641.24 76.3718H670.201L638.641 185H613.34L593.768 119.123H592.92L573.347 185H548.1ZM738.451 108.939C738.098 105.049 736.524 102.026 733.731 99.869C730.972 97.6766 727.03 96.5804 721.902 96.5804C718.508 96.5804 715.679 97.0224 713.416 97.9065C711.153 98.7905 709.455 100.01 708.324 101.566C707.192 103.087 706.609 104.837 706.573 106.817C706.503 108.444 706.821 109.876 707.528 111.114C708.271 112.351 709.332 113.448 710.711 114.402C712.125 115.322 713.822 116.135 715.803 116.842C717.783 117.549 720.011 118.168 722.486 118.699L731.821 120.82C737.196 121.987 741.934 123.543 746.036 125.488C750.173 127.433 753.639 129.749 756.432 132.436C759.261 135.124 761.4 138.218 762.85 141.718C764.3 145.219 765.042 149.144 765.078 153.494C765.042 160.354 763.31 166.241 759.88 171.156C756.45 176.071 751.517 179.837 745.081 182.454C738.681 185.071 730.955 186.379 721.902 186.379C712.815 186.379 704.894 185.018 698.14 182.295C691.386 179.572 686.135 175.435 682.387 169.883C678.638 164.332 676.711 157.313 676.605 148.826H701.747C701.959 152.327 702.896 155.244 704.558 157.578C706.22 159.912 708.501 161.68 711.4 162.882C714.335 164.084 717.73 164.685 721.584 164.685C725.12 164.685 728.126 164.208 730.601 163.253C733.112 162.298 735.039 160.972 736.383 159.275C737.726 157.578 738.416 155.633 738.451 153.441C738.416 151.39 737.779 149.639 736.542 148.189C735.304 146.704 733.395 145.431 730.813 144.37C728.267 143.274 725.014 142.267 721.054 141.347L709.703 138.695C700.297 136.538 692.889 133.055 687.479 128.246C682.068 123.402 679.381 116.86 679.416 108.621C679.381 101.902 681.184 96.0147 684.827 90.9581C688.469 85.9015 693.508 81.9588 699.943 79.1299C706.379 76.301 713.716 74.8866 721.955 74.8866C730.371 74.8866 737.673 76.3187 743.861 79.1829C750.085 82.0118 754.912 85.9899 758.342 91.1172C761.772 96.2445 763.522 102.185 763.593 108.939H738.451ZM850.58 185H810.428V76.3718H850.527C861.595 76.3718 871.125 78.5465 879.116 82.8958C887.143 87.2098 893.331 93.4333 897.681 101.566C902.03 109.664 904.205 119.353 904.205 130.633C904.205 141.948 902.03 151.672 897.681 159.805C893.367 167.938 887.196 174.18 879.169 178.529C871.142 182.843 861.613 185 850.58 185ZM836.683 162.617H849.572C855.654 162.617 860.799 161.591 865.007 159.54C869.251 157.454 872.451 154.077 874.608 149.409C876.8 144.706 877.896 138.448 877.896 130.633C877.896 122.818 876.8 116.595 874.608 111.962C872.415 107.295 869.18 103.935 864.901 101.885C860.658 99.7983 855.425 98.7551 849.201 98.7551H836.683V162.617ZM957.564 186.538C949.007 186.538 941.652 184.788 935.499 181.287C929.382 177.751 924.661 172.836 921.337 166.542C918.048 160.212 916.404 152.875 916.404 144.53C916.404 136.149 918.048 128.812 921.337 122.518C924.661 116.188 929.382 111.273 935.499 107.772C941.652 104.236 949.007 102.468 957.564 102.468C966.121 102.468 973.459 104.236 979.576 107.772C985.729 111.273 990.45 116.188 993.738 122.518C997.062 128.812 998.724 136.149 998.724 144.53C998.724 152.875 997.062 160.212 993.738 166.542C990.45 172.836 985.729 177.751 979.576 181.287C973.459 184.788 966.121 186.538 957.564 186.538ZM957.723 166.966C960.835 166.966 963.469 166.011 965.626 164.102C967.783 162.192 969.428 159.54 970.559 156.146C971.726 152.751 972.31 148.826 972.31 144.37C972.31 139.844 971.726 135.884 970.559 132.489C969.428 129.095 967.783 126.443 965.626 124.533C963.469 122.624 960.835 121.669 957.723 121.669C954.505 121.669 951.783 122.624 949.555 124.533C947.363 126.443 945.683 129.095 944.516 132.489C943.384 135.884 942.819 139.844 942.819 144.37C942.819 148.826 943.384 152.751 944.516 156.146C945.683 159.54 947.363 162.192 949.555 164.102C951.783 166.011 954.505 166.966 957.723 166.966ZM1050.04 186.538C1041.45 186.538 1034.08 184.77 1027.92 181.234C1021.81 177.698 1017.1 172.783 1013.81 166.489C1010.53 160.159 1008.88 152.839 1008.88 144.53C1008.88 136.184 1010.53 128.865 1013.81 122.571C1017.14 116.241 1021.86 111.308 1027.98 107.772C1034.13 104.236 1041.47 102.468 1049.99 102.468C1057.52 102.468 1064.08 103.829 1069.67 106.552C1075.29 109.275 1079.67 113.129 1082.82 118.115C1086 123.066 1087.68 128.882 1087.86 135.566H1063.62C1063.12 131.393 1061.71 128.122 1059.38 125.753C1057.08 123.384 1054.07 122.199 1050.36 122.199C1047.35 122.199 1044.72 123.048 1042.46 124.745C1040.19 126.407 1038.43 128.882 1037.15 132.171C1035.91 135.424 1035.3 139.455 1035.3 144.264C1035.3 149.073 1035.91 153.14 1037.15 156.464C1038.43 159.752 1040.19 162.245 1042.46 163.943C1044.72 165.605 1047.35 166.436 1050.36 166.436C1052.76 166.436 1054.89 165.923 1056.72 164.897C1058.6 163.872 1060.14 162.369 1061.34 160.389C1062.54 158.373 1063.3 155.933 1063.62 153.069H1087.86C1087.61 159.788 1085.93 165.658 1082.82 170.679C1079.74 175.7 1075.41 179.607 1069.83 182.401C1064.27 185.159 1057.68 186.538 1050.04 186.538ZM1172.26 128.405L1148.45 129.042C1148.2 127.344 1147.53 125.841 1146.43 124.533C1145.33 123.189 1143.9 122.146 1142.13 121.404C1140.4 120.626 1138.39 120.237 1136.09 120.237C1133.08 120.237 1130.52 120.838 1128.4 122.04C1126.31 123.242 1125.28 124.869 1125.32 126.92C1125.28 128.511 1125.92 129.89 1127.23 131.057C1128.57 132.224 1130.96 133.161 1134.39 133.868L1150.09 136.839C1158.22 138.395 1164.27 140.976 1168.23 144.583C1172.23 148.189 1174.24 152.963 1174.28 158.904C1174.24 164.491 1172.58 169.353 1169.29 173.49C1166.04 177.627 1161.58 180.845 1155.92 183.144C1150.27 185.407 1143.8 186.538 1136.51 186.538C1124.88 186.538 1115.7 184.151 1108.98 179.378C1102.3 174.569 1098.48 168.133 1097.53 160.071L1123.15 159.434C1123.71 162.404 1125.18 164.668 1127.55 166.223C1129.92 167.779 1132.94 168.557 1136.62 168.557C1139.94 168.557 1142.65 167.938 1144.73 166.701C1146.82 165.463 1147.88 163.819 1147.92 161.768C1147.88 159.929 1147.07 158.462 1145.48 157.366C1143.88 156.234 1141.39 155.35 1138 154.714L1123.78 152.008C1115.61 150.523 1109.53 147.783 1105.54 143.787C1101.54 139.756 1099.56 134.629 1099.59 128.405C1099.56 122.96 1101.01 118.31 1103.94 114.455C1106.88 110.566 1111.05 107.595 1116.46 105.544C1121.87 103.493 1128.25 102.468 1135.61 102.468C1146.64 102.468 1155.34 104.784 1161.71 109.416C1168.07 114.013 1171.59 120.343 1172.26 128.405Z" fill="black"/>
</g>
<defs>
<clipPath id="clip0_504_34">
<rect width="1179" height="256" fill="white"/>
</clipPath>
</defs>
</svg>
