<?xml version="1.0" encoding="iso-8859-1"?>
<!-- Generator: Adobe Illustrator 19.0.0, SVG Export Plug-In . SVG Version: 6.00 Build 0)  -->
<svg version="1.1" id="Layer_1" xmlns="http://www.w3.org/2000/svg" xmlns:xlink="http://www.w3.org/1999/xlink" x="0px" y="0px"
	 viewBox="0 0 318.965 318.965" style="enable-background:new 0 0 318.965 318.965;" xml:space="preserve">
<g>
	<g>
		<path style="fill:#F9F5ED;" d="M303.673,253.518c-11.151-37.754-67.121-33.566-91.279-44.408
			c-24.157-10.842-20.386-47.219-23.449-53.548h-58.932c-3.058,6.329,0.714,42.711-23.449,53.548
			c-24.157,10.842-80.133,6.655-91.279,44.408c-6.149,20.824-5.857,27.193-7.554,50.26c0,0,76.8,15.187,150.014,15.187
			s153.488-15.187,153.488-15.187C309.53,280.705,309.822,274.342,303.673,253.518z"/>
		<path style="fill:#EAE5DC;" d="M303.673,253.518c-11.151-37.754-67.121-33.566-91.279-44.408
			c-24.157-10.842-20.386-47.219-23.449-53.548H157.74c0,0-0.719,51.024,23.438,61.866s80.133,6.655,91.279,44.408
			c5.857,19.83,5.868,26.552,7.324,47.073c19.234-2.816,31.442-5.126,31.442-5.126C309.53,280.705,309.822,274.342,303.673,253.518z
			"/>
		<path style="fill:#E0DBD3;" d="M60.621,312.068c27.631,3.552,62.771,6.897,97.124,6.897c35.112,0,71.854-3.496,100.581-7.133
			v-22.853c0,0-56.852,8.526-100.721,8.526s-96.978-8.526-96.978-8.526v23.089H60.621z"/>
		<path style="fill:#C6C1BA;" d="M190.092,226.382c9.741-3.805,17.756-9.409,23.168-16.21l0.416-0.517
			c-0.433-0.18-0.86-0.36-1.276-0.545c-24.157-10.842-20.386-47.219-23.449-53.548h-58.938c-3.058,6.329,0.714,42.711-23.449,53.548
			c-0.416,0.185-0.843,0.371-1.276,0.545l0.416,0.517c5.413,6.795,13.428,12.399,23.168,16.21c9.229,3.603,19.813,5.508,30.61,5.508
			S180.863,229.984,190.092,226.382z"/>
		<path style="fill:#BAB6B1;" d="M212.395,209.109c-4.345-1.95-7.779-4.727-10.516-8.004l0,0
			c-5.064,6.357-13.827,11.404-24.573,14.096c1.214,0.86,2.507,1.607,3.878,2.22c4.71,2.113,10.634,3.659,17.199,5.053
			c6.031-3.378,11.089-7.548,14.872-12.304l0.416-0.517C213.238,209.48,212.811,209.295,212.395,209.109z"/>
		<path style="fill:#DADADA;" d="M201.878,201.106c-12.5-14.951-10.421-40.356-12.927-45.549h-58.938
			c-2.512,5.193-0.427,30.599-12.927,45.549c7.655,9.611,23.764,16.232,42.396,16.232S194.223,210.717,201.878,201.106z"/>
		<path style="fill:#CCCCCC;" d="M177.305,215.202c10.747-2.692,19.509-7.74,24.573-14.096
			c-12.5-14.951-10.421-40.356-12.927-45.549h-31.206C157.745,155.562,157.105,200.948,177.305,215.202z"/>
		<path style="fill:#C5C5C5;" d="M122.083,193.158c9.78,7.959,21.24,15.85,37.338,18.132c16.137-2.288,27.569-10.342,37.36-18.334
			c-8.144-14.973-5.626-32.83-7.83-37.4h-58.938C127.799,160.131,130.266,178.179,122.083,193.158z"/>
		
			<ellipse transform="matrix(-0.177 0.9842 -0.9842 -0.177 385.656 -85.3712)" style="fill:#CCCCCC;" cx="228.522" cy="118.557" rx="21.386" ry="11.629"/>
		
			<ellipse transform="matrix(-0.9842 0.177 -0.177 -0.9842 200.0904 219.2806)" style="fill:#DADADA;" cx="90.265" cy="118.565" rx="11.629" ry="21.386"/>
		<path style="fill:#DADADA;" d="M223.641,47.365H159.42H95.233c0,0-35.989,146.614,64.187,160.806
			C259.636,193.979,223.641,47.365,223.641,47.365z"/>
		<path style="fill:#CCCCCC;" d="M159.42,208.171c100.216-14.192,64.221-160.806,64.221-160.806h-15.024
			c4.114,61.242,9.808,93.774-13.815,129.24C176.085,204.708,159.42,208.171,159.42,208.171z"/>
		<path style="fill:#CCCCCC;" d="M211.563,43.504L86.841,53.823V84.27c0,0,3.417,2.366,6.216,3.232c0,0,34.19,7.655,57.735-1.343
			c21.049-8.043,30.346-32.611,51.361-32.931c3.58-0.056,6.694,0.669,9.403,1.956L211.563,43.504z"/>
		<path style="fill:#3B3B3B;" d="M235.788,48.731c-5.722-22.769-34.595-48.725-76.305-48.725S88.898,25.962,83.171,48.731
			c0,0-10.932,47.483,7.683,67.931c0,0-0.916-18.548,0.956-33.313c0,0,34.19,7.655,57.735-1.343
			c21.049-8.043,30.346-32.611,51.361-32.931c19.487-0.292,25.282,22.387,26.237,34.275s0.955,33.313,0.955,33.313
			C246.72,96.214,235.788,48.731,235.788,48.731z"/>
		<path style="fill:#CCCCCC;" d="M160.764,109.327c-0.433,0-0.866,0-1.293-0.006c-0.433,0-0.86,0.006-1.293,0.006
			c-35.955,0-66.447,34.033-77.098,13.641c10.145,24.371,40.665-4.581,77.098-4.581c0.433,0,0.866,0,1.293-0.006
			c0.433,0,0.86,0.006,1.293,0.006c36.427,0,66.953,28.952,77.098,4.581C227.216,143.359,196.724,109.327,160.764,109.327z"/>
		<path style="fill:#9F9F9F;" d="M159.471,0.006L159.471,0.006L159.471,0.006L159.471,0.006L159.471,0.006
			c-94.252,0-82.432,97.956-82.432,97.956l82.432-12.764l82.432,12.764C241.903,97.962,253.723,0.006,159.471,0.006z"/>
		<path style="fill:#E0DBD3;" d="M208.263,92.751C200.293,5.699,159.662,0.028,159.477,0l0,0l0,0l0,0l0,0
			c-0.191,0.028-40.817,5.699-48.787,92.751l48.759-7.548h0.056L208.263,92.751z"/>
		<path style="fill:#808080;" d="M160.764,70.786c-0.433,0-2.158,0-2.591,0c-44.813,0-81.139,19.846-81.139,25.894
			c0,65.508,36.326,12.646,81.139,12.646c0.433,0,2.158,0,2.591,0c44.813,0,81.139,52.862,81.139-12.646
			C241.903,90.632,205.577,70.786,160.764,70.786z"/>
	</g>
</g>
<g>
</g>
<g>
</g>
<g>
</g>
<g>
</g>
<g>
</g>
<g>
</g>
<g>
</g>
<g>
</g>
<g>
</g>
<g>
</g>
<g>
</g>
<g>
</g>
<g>
</g>
<g>
</g>
<g>
</g>
</svg>
