<?xml version="1.0" encoding="UTF-8" standalone="no"?>
<!-- Created with Inkscape (http://www.inkscape.org/) -->

<svg
   width="512"
   height="512"
   viewBox="0 0 135.46666 135.46667"
   version="1.1"
   id="svg5"
   inkscape:version="1.2.1 (9c6d41e4, 2022-07-14)"
   sodipodi:docname="icon.svg"
   xmlns:inkscape="http://www.inkscape.org/namespaces/inkscape"
   xmlns:sodipodi="http://sodipodi.sourceforge.net/DTD/sodipodi-0.dtd"
   xmlns="http://www.w3.org/2000/svg"
   xmlns:svg="http://www.w3.org/2000/svg">
  <sodipodi:namedview
     id="namedview7"
     pagecolor="#ffffff"
     bordercolor="#666666"
     borderopacity="1.0"
     inkscape:pageshadow="2"
     inkscape:pageopacity="0.0"
     inkscape:pagecheckerboard="0"
     inkscape:document-units="mm"
     showgrid="false"
     inkscape:zoom="1.1039267"
     inkscape:cx="245.48731"
     inkscape:cy="299.38582"
     inkscape:window-width="1554"
     inkscape:window-height="961"
     inkscape:window-x="477"
     inkscape:window-y="25"
     inkscape:window-maximized="0"
     inkscape:current-layer="text15966"
     units="px"
     inkscape:showpageshadow="2"
     inkscape:deskcolor="#d1d1d1" />
  <defs
     id="defs2" />
  <g
     inkscape:label="Layer 1"
     inkscape:groupmode="layer"
     id="layer1">
    <g
       aria-label="SVWS"
       id="text15966"
       style="font-weight:bold;font-size:58.3318px;line-height:1.25;font-family:Impact;-inkscape-font-specification:'Impact Bold';fill:#009233;stroke-width:0.390615">
      <path
         d="M 26.403114,28.105198 H 15.266526 V 24.68732 q 0,-2.392516 -0.427235,-3.047609 -0.427235,-0.655093 -1.424116,-0.655093 -1.082329,0 -1.651975,0.882952 -0.541164,0.882952 -0.541164,2.677338 0,2.307068 0.626611,3.474843 0.598129,1.167776 3.389396,2.81975 8.003533,4.756548 10.082743,7.804157 2.079209,3.047609 2.079209,9.826402 0,4.927442 -1.167775,7.262992 -1.139293,2.335551 -4.443242,3.930561 -3.30395,1.566528 -7.690228,1.566528 -4.8135123,0 -8.2313911,-1.822869 Q 2.4779624,57.584403 1.4241164,54.764653 0.37027048,51.944903 0.37027048,46.76112 V 43.741994 H 11.506859 v 5.611018 q 0,2.591891 0.455717,3.332432 0.4842,0.74054 1.680457,0.74054 1.196258,0 1.765904,-0.939917 0.598129,-0.939916 0.598129,-2.791267 0,-4.072973 -1.110811,-5.326195 Q 13.756963,43.115383 9.2852377,40.181704 4.8135129,37.219542 3.3609144,35.880873 1.9083159,34.542204 0.93991695,32.178171 2.7380884e-7,29.814138 2.7380884e-7,26.139918 q 0,-5.297712 1.33866922619116,-7.747192 1.3671515,-2.44948 4.3862778,-3.816631 3.0191263,-1.395634 7.2914747,-1.395634 4.671101,0 7.946568,1.509563 3.30395,1.509563 4.357796,3.816631 1.082328,2.278586 1.082328,7.775675 z"
         id="path9168" />
      <path
         d="M 59.641986,14.14886 53.546769,60.261742 H 35.346564 L 28.425359,14.14886 h 12.646152 q 2.193139,19.054674 3.133056,32.213508 0.939916,-13.301245 1.96528,-23.640329 l 0.825987,-8.573179 z"
         id="path9170" />
      <path
         d="m 106.80871,14.14886 -5.32619,46.112882 H 86.500817 Q 84.450089,49.637835 82.883562,36.108731 82.171504,41.890643 79.55113,60.261742 H 64.654875 L 59.300198,14.14886 h 11.64927 l 1.22474,16.092513 1.253222,15.522866 Q 74.082524,33.716216 76.73138,14.14886 h 12.475257 q 0.256341,2.022245 1.310187,15.209561 l 1.310187,17.516629 q 0.996881,-16.719124 3.332432,-32.72619 z"
         id="path9172" />
      <path
         d="M 134.60746,28.105198 H 123.47087 V 24.68732 q 0,-2.392516 -0.42723,-3.047609 -0.42724,-0.655093 -1.42412,-0.655093 -1.08233,0 -1.65197,0.882952 -0.54117,0.882952 -0.54117,2.677338 0,2.307068 0.62661,3.474843 0.59813,1.167776 3.3894,2.81975 8.00353,4.756548 10.08274,7.804157 2.07921,3.047609 2.07921,9.826402 0,4.927442 -1.16777,7.262992 -1.1393,2.335551 -4.44325,3.930561 -3.30395,1.566528 -7.69022,1.566528 -4.81352,0 -8.2314,-1.822869 -3.38939,-1.822869 -4.44324,-4.642619 -1.05384,-2.81975 -1.05384,-8.003533 v -3.019126 h 11.13658 v 5.611018 q 0,2.591891 0.45572,3.332432 0.4842,0.74054 1.68046,0.74054 1.19626,0 1.7659,-0.939917 0.59813,-0.939916 0.59813,-2.791267 0,-4.072973 -1.11081,-5.326195 -1.13929,-1.253222 -5.61102,-4.186901 -4.47172,-2.962162 -5.92432,-4.300831 -1.4526,-1.338669 -2.421,-3.702702 -0.93991,-2.364033 -0.93991,-6.038253 0,-5.297712 1.33867,-7.747192 1.36715,-2.44948 4.38627,-3.816631 3.01913,-1.395634 7.29148,-1.395634 4.6711,0 7.94657,1.509563 3.30395,1.509563 4.35779,3.816631 1.08233,2.278586 1.08233,7.775675 z"
         id="path9174" />
    </g>
    <g
       aria-label="NRW"
       transform="scale(0.96963002,1.0313212)"
       id="text18294"
       style="font-stretch:condensed;font-size:75.1158px;line-height:1.25;font-family:Impact;-inkscape-font-specification:'Impact Condensed';fill:#e40014;stroke-width:0.503007">
      <path
         d="M 34.959538,60.603084 V 119.98418 H 21.42549 L 13.393087,92.989436 V 119.98418 H 0.48255947 V 60.603084 H 13.393087 L 22.04901,87.34108 V 60.603084 Z"
         id="path9161" />
      <path
         d="m 41.158058,60.603084 h 10.929936 q 10.929936,0 14.781087,0.843585 3.88783,0.843586 6.308554,4.327961 2.457401,3.447698 2.457401,11.039969 0,6.932073 -1.723848,9.316119 -1.723849,2.384047 -6.785363,2.860856 4.584704,1.137007 6.161843,3.044244 1.577138,1.907237 1.943914,3.521053 0.403454,1.577138 0.403454,8.765959 v 15.66135 H 61.294081 v -19.73257 q 0,-4.768094 -0.770231,-5.905101 -0.733552,-1.137007 -3.924507,-1.137007 V 119.98418 H 41.158058 Z m 15.441285,10.159705 v 13.203949 q 2.604112,0 3.631086,-0.696875 1.063652,-0.733553 1.063652,-4.65806 v -3.26431 q 0,-2.824178 -1.026974,-3.704441 -0.990296,-0.880263 -3.667764,-0.880263 z"
         id="path9163" />
      <path
         d="m 139.71087,60.603084 -6.85872,59.381096 h -19.29243 q -2.64079,-13.68076 -4.65806,-31.102639 -0.91694,7.44556 -4.29129,31.102639 H 85.427969 L 78.532574,60.603084 h 15.001153 l 1.577138,20.722864 1.613816,19.989312 q 0.843586,-15.51464 4.254609,-40.712176 h 16.0648 q 0.3301,2.604112 1.68717,19.585857 l 1.68717,22.556749 q 1.28372,-21.529775 4.29129,-42.142606 z"
         id="path9165" />
    </g>
  </g>
</svg>
