<?xml version="1.0" encoding="iso-8859-1"?>
<!-- Generator: Adobe Illustrator 19.0.0, SVG Export Plug-In . SVG Version: 6.00 Build 0)  -->
<svg version="1.1" id="Layer_1" xmlns="http://www.w3.org/2000/svg" xmlns:xlink="http://www.w3.org/1999/xlink" x="0px" y="0px"
	 viewBox="0 0 318.96 318.96" style="enable-background:new 0 0 318.96 318.96;" xml:space="preserve">
<g>
	<g>
		<path style="fill:#636358;" d="M303.672,253.512c-11.151-37.754-67.121-33.566-91.279-44.408
			c-24.157-10.842-20.386-47.219-23.449-53.548h-58.933c-3.058,6.329,0.714,42.711-23.449,53.548
			c-24.157,10.842-80.133,6.655-91.279,44.408c-6.149,20.824-5.857,27.193-7.554,50.26c0,0,76.8,15.187,150.014,15.187
			s153.488-15.187,153.488-15.187C309.528,280.699,309.821,274.337,303.672,253.512z"/>
		<path style="fill:#515147;" d="M303.672,253.512c-11.151-37.754-67.121-33.566-91.279-44.408
			c-24.157-10.842-20.386-47.219-23.449-53.548h-31.206c0,0-0.719,51.024,23.438,61.866s80.133,6.655,91.279,44.408
			c5.857,19.83,5.868,26.552,7.324,47.073c19.234-2.816,31.442-5.126,31.442-5.126C309.528,280.699,309.821,274.337,303.672,253.512
			z"/>
		<path style="fill:#EAE5DC;" d="M186.291,318.262l14.282-100.929h-82.196l14.304,101.076c8.324,0.354,16.716,0.551,25.062,0.551
			C167.203,318.959,176.786,318.706,186.291,318.262z"/>
		<path style="fill:#393C3D;" d="M190.09,226.376c9.741-3.805,17.756-9.409,23.168-16.21l0.416-0.517
			c-0.433-0.18-0.86-0.36-1.276-0.545c-24.157-10.842-20.386-47.219-23.449-53.548h-58.938c-3.058,6.329,0.714,42.711-23.449,53.548
			c-0.416,0.185-0.843,0.371-1.276,0.545l0.416,0.517c5.413,6.795,13.428,12.399,23.168,16.21c9.229,3.603,19.813,5.508,30.61,5.508
			C170.278,231.884,180.861,229.979,190.09,226.376z"/>
		<path style="fill:#2F3233;" d="M212.393,209.104c-4.345-1.95-7.779-4.727-10.516-8.004l0,0
			c-5.064,6.357-13.827,11.404-24.573,14.096c1.214,0.86,2.507,1.607,3.878,2.22c4.71,2.113,10.634,3.659,17.199,5.053
			c6.031-3.378,11.089-7.548,14.872-12.304l0.416-0.517C213.236,209.475,212.809,209.289,212.393,209.104z"/>
		<path style="fill:#D9D9D9;" d="M201.877,201.1c-12.5-14.951-10.421-40.356-12.927-45.549h-58.939
			c-2.512,5.193-0.427,30.599-12.927,45.549c7.655,9.611,23.764,16.232,42.396,16.232S194.221,210.711,201.877,201.1z"/>
		<path style="fill:#CBCBCB;" d="M177.303,215.196c10.747-2.692,19.509-7.74,24.573-14.096
			c-12.5-14.951-10.421-40.356-12.927-45.549h-31.206C157.744,155.556,157.103,200.943,177.303,215.196z"/>
		<path style="fill:#C5C5C5;" d="M122.081,193.152c9.78,7.959,21.24,15.85,37.338,18.132c16.137-2.288,27.569-10.342,37.36-18.334
			c-8.144-14.973-5.626-32.83-7.83-37.4h-58.938C127.797,160.126,130.264,178.173,122.081,193.152z"/>
		<path style="fill:#515147;" d="M233.29,250.724l-15.333-5.559l13.776-3.794l-13.13-29.969L177.854,318.61
			c4.778-0.163,9.549-0.377,14.293-0.635L233.29,250.724z"/>
		<path style="fill:#515147;" d="M86.188,241.366l13.776,3.794l-15.333,5.559l41.216,67.369c4.716,0.247,9.471,0.444,14.237,0.59
			L99.239,211.729L86.188,241.366z"/>
		<path style="fill:#72726A;" d="M228.979,251.556l-14.833-6.239l13.461-4.783l-9.004-29.137l-16.907-13.147l-32.111,120.579
			c6.97-0.146,13.962-0.41,20.903-0.776L228.979,251.556z"/>
		<path style="fill:#636358;" d="M201.691,198.25l-6.278,23.567c8.538,1.945,18.385,3.507,28.171,5.711l-4.985-16.131
			L201.691,198.25z"/>
		<path style="fill:#72726A;" d="M99.233,211.734l-8.926,28.806l13.461,4.783l-14.833,6.239l38.563,66.621
			c6.902,0.343,13.877,0.585,20.847,0.703l-32.127-120.624L99.233,211.734z"/>
		
			<ellipse transform="matrix(-0.177 0.9842 -0.9842 -0.177 385.6474 -85.3764)" style="fill:#CBCBCB;" cx="228.52" cy="118.551" rx="21.386" ry="11.629"/>
		
			<ellipse transform="matrix(-0.9842 0.177 -0.177 -0.9842 200.0857 219.2679)" style="fill:#D9D9D9;" cx="90.263" cy="118.558" rx="11.629" ry="21.386"/>
		<path style="fill:#D9D9D9;" d="M223.64,47.359h-64.221H95.231c0,0-35.989,146.614,64.187,160.806
			C259.634,193.973,223.64,47.359,223.64,47.359z"/>
		<path style="fill:#CBCBCB;" d="M159.418,208.165c100.216-14.192,64.221-160.806,64.221-160.806h-15.024
			c4.114,61.242,9.808,93.774-13.815,129.24C176.084,204.703,159.418,208.165,159.418,208.165z"/>
		<path style="fill:#CBCBCB;" d="M235.786,53.3c-5.722-22.769-34.595-48.725-76.305-48.725S88.897,30.531,83.175,53.3l7.683,63.26
			c0.056-6.93,0.27-20.139,0.95-28.643c0.956-11.888,6.75-34.567,26.237-34.275c7.262,0.112,24.275,11.888,41.43,11.888
			c16.536,0,33.212-11.764,41.43-11.888c19.487-0.292,25.282,22.387,26.237,34.275c0.686,8.515,0.916,21.797,0.972,28.721
			L235.786,53.3z"/>
		<path style="fill:#3B3B3B;" d="M228.119,116.633c18.593-20.459,7.667-67.908,7.667-67.908C230.064,25.956,201.191,0,159.48,0
			S88.897,25.956,83.169,48.725c0,0-10.932,47.483,7.683,67.931l0,0l0,0c0,0-0.006-21.431,0.956-33.313s6.75-34.567,26.237-34.275
			c7.262,0.112,24.275,11.888,41.43,11.888c16.536,0,33.212-11.764,41.43-11.888c19.487-0.292,25.282,22.387,26.237,34.275
			s0.955,33.313,0.955,33.313l0,0l0,0C228.108,116.645,228.114,116.639,228.119,116.633z"/>
	</g>
</g>
<g>
</g>
<g>
</g>
<g>
</g>
<g>
</g>
<g>
</g>
<g>
</g>
<g>
</g>
<g>
</g>
<g>
</g>
<g>
</g>
<g>
</g>
<g>
</g>
<g>
</g>
<g>
</g>
<g>
</g>
</svg>
