<?xml version="1.0" encoding="iso-8859-1"?>
<!-- Generator: Adobe Illustrator 19.0.0, SVG Export Plug-In . SVG Version: 6.00 Build 0)  -->
<svg version="1.1" id="Layer_1" xmlns="http://www.w3.org/2000/svg" xmlns:xlink="http://www.w3.org/1999/xlink" x="0px" y="0px"
	 viewBox="0 0 318.538 318.538" style="enable-background:new 0 0 318.538 318.538;" xml:space="preserve">
<g>
	<g>
		<circle style="fill:#2F3233;" cx="213.427" cy="184.603" r="41.581"/>
		<circle style="fill:#2F3233;" cx="105.112" cy="184.603" r="41.581"/>
		<path style="fill:#2F3233;" d="M129.359,236.836c0,0-19.256-23.123-33.887-57.932c-12.573-29.907-27.384-60.422-26.833-100.721
			C69.163,39.867,91.33,0,157.946,0c58.32,0,72.135,26.653,69.364,44.841c0,0,8.813,0.781,13.467,6.835
			c7.891,10.269,8.836,53.93-0.731,85.113c-21.729,70.831-50.788,100.047-50.788,100.047H129.359z"/>
		<path style="fill:#606060;" d="M295.387,253.091c-10.522-37.754-63.361-33.566-86.164-44.408s-19.245-47.219-22.134-53.548
			h-55.638c-2.889,6.329,0.674,42.711-22.134,53.548c-22.803,10.842-75.642,6.655-86.164,44.408
			c-5.806,20.824-5.525,27.187-7.133,50.26c0,0,72.5,15.187,141.611,15.187s144.888-15.187,144.888-15.187
			C300.917,280.278,301.193,273.915,295.387,253.091z"/>
		<path style="fill:#515151;" d="M179.759,216.995c22.803,10.842,75.642,6.655,86.164,44.408c5.531,19.83,5.542,26.552,6.913,47.073
			c18.155-2.816,29.682-5.126,29.682-5.126c-1.602-23.067-1.326-29.435-7.133-50.26c-10.522-37.754-63.361-33.566-86.164-44.408
			c-22.803-10.842-19.245-47.219-22.134-53.548h-29.456C157.631,155.135,156.951,206.159,179.759,216.995z"/>
		<path style="fill:#515151;" d="M109.322,208.682c0,0-17.008,20.088-33.24,24.882c0,0,33.83,55.582,83.191,80.431L109.322,208.682z
			"/>
		<path style="fill:#515151;" d="M209.223,208.682c0,0,17.008,20.088,33.24,24.882c0,0-33.83,55.582-83.191,80.431L209.223,208.682z
			"/>
		<path style="fill:#6D6D6D;" d="M209.223,208.682c-6.396-3.041-10.713-8.088-13.686-13.917h-28.356h-0.017h-15.783h-0.017h-28.356
			c-2.973,5.829-7.29,10.876-13.686,13.917c-0.393,0.185-8.897,17.503-29.233,25.883c0,0,9.454,14.9,29.8,37.512
			s49.377,41.919,49.377,41.919s29.03-19.307,49.377-41.919s29.801-37.512,29.801-37.512
			C218.12,226.185,209.616,208.868,209.223,208.682z"/>
		<path style="fill:#606060;" d="M209.223,208.682c-6.396-3.041-10.713-8.088-13.686-13.917h-28.356h-0.017h-3.755
			c3.266,9.724,8.369,18.441,16.35,22.235c11.736,5.576,31.419,7.178,49.203,12.562
			C215.422,220.716,209.549,208.834,209.223,208.682z"/>
		<path style="fill:#E8E8E8;" d="M199.291,200.678c-11.803-14.951-9.836-40.356-12.202-45.549h-55.638
			c-2.372,5.193-0.405,30.599-12.202,45.549c4.721,53.171,40.024,113.312,40.024,113.312S194.48,254.378,199.291,200.678z"/>
		<path style="fill:#EAE5DC;" d="M134.53,261.336c11.382,29.896,24.742,52.654,24.742,52.654s13.394-22.679,24.787-52.654H134.53z"
			/>
		<path style="fill:#DDDDDD;" d="M179.759,216.995c4.44,2.113,10.022,3.653,16.204,5.042c1.534-7.121,2.698-14.293,3.333-21.364
			c-11.803-14.951-9.836-40.356-12.202-45.549h-29.458C157.631,155.135,156.951,206.159,179.759,216.995z"/>
		<path style="fill:#CECECE;" d="M123.969,192.731c9.229,7.959,20.054,15.85,35.241,18.132
			c15.237-2.288,26.023-10.342,35.269-18.334c-7.689-14.973-5.311-32.83-7.391-37.4H131.45
			C129.365,159.704,131.692,177.752,123.969,192.731z"/>
		<g>
			
				<ellipse transform="matrix(-0.177 0.9842 -0.9842 -0.177 380.0948 -81.5728)" style="fill:#DDDDDD;" cx="224.153" cy="118.132" rx="21.386" ry="11.629"/>
			
				<ellipse transform="matrix(-0.9842 0.177 -0.177 -0.9842 207.8496 217.7334)" style="fill:#E8E8E8;" cx="94.213" cy="118.137" rx="11.629" ry="21.386"/>
			<path style="fill:#E8E8E8;" d="M219.643,46.938l-59.91,9.218c0,0-21.229,0.922-38.552,9.729
				c-15.901,8.088-28.002,23.91-28.159,28.378c-1.551,44.156,7.464,104.645,66.171,113.48
				C253.524,193.551,219.643,46.938,219.643,46.938z"/>
			<path style="fill:#DDDDDD;" d="M159.194,207.744c94.331-14.192,60.45-160.806,60.45-160.806h-14.141
				c3.873,61.242,9.229,93.774-13.006,129.24C174.881,204.281,159.194,207.744,159.194,207.744z"/>
			<path style="fill:#DDDDDD;" d="M217.401,40.407c0,0-32.701,15.721-81.51,14.883c-43.031-0.736-41.317,69.555-41.694,72.045
				c0,0,10.91-43.464,40.828-52.924c25.641-8.111,41.699-1.057,59.871,0.652c20.223,1.9,26.968-13.445,26.968-13.445L217.401,40.407
				z"/>
			<path style="fill:#2F3233;" d="M238.45,77.992l-11.584-28.525c0,0-3.569-8.29-11.202-15.063c0,0-30.975,18.171-79.773,16.733
				c-52.154-1.54-47.663,45.847-41.694,76.204c0,0,2.04-33.066,27.833-50.726c17.711-12.129,39.389-11.994,57.325-8.437
				c17.087,3.389,27.575,1.051,33.988-2.771c4.558,5.93,10.325,16.171,12.214,31.571L238.45,77.992z"/>
			<circle style="fill:#CCCCCC;" cx="228.22" cy="134.917" r="4.367"/>
			<circle style="fill:#CCCCCC;" cx="90.38" cy="134.917" r="4.367"/>
		</g>
	</g>
</g>
<g>
</g>
<g>
</g>
<g>
</g>
<g>
</g>
<g>
</g>
<g>
</g>
<g>
</g>
<g>
</g>
<g>
</g>
<g>
</g>
<g>
</g>
<g>
</g>
<g>
</g>
<g>
</g>
<g>
</g>
</svg>
