<svg xmlns="http://www.w3.org/2000/svg" fill="none" viewBox="0 0 256 256">
	<rect width="256" height="256" fill="#2285D5" rx="51"/>
	<path fill="#fff" d="m148.87 22 22.22 74.7h.82L194.13 22H221l-33.52 102h-31.96L122 22h26.87ZM44.38 235 16 137h26.05l14.71 64.22h.81L74.38 137h21.24l16.8 64.36h.82L128 137h26l-28.33 98h-22.72l-17.57-59.43h-.76L67.05 235H44.38ZM212.02 166.15c-.33-3.56-1.8-6.32-4.43-8.3-2.59-2-6.28-3-11.1-3-3.18 0-5.83.4-7.96 1.21-2.12.8-3.71 1.93-4.77 3.35-1.06 1.39-1.61 3-1.64 4.8a7 7 0 0 0 .89 3.93 9.98 9.98 0 0 0 2.99 3.01c1.32.84 2.91 1.59 4.77 2.23a50.5 50.5 0 0 0 6.27 1.7l8.76 1.94a62.74 62.74 0 0 1 13.34 4.27 36.09 36.09 0 0 1 9.75 6.36 24.58 24.58 0 0 1 6.02 8.5A27.9 27.9 0 0 1 237 206.9c-.03 6.28-1.66 11.67-4.88 16.16-3.21 4.5-7.84 7.94-13.88 10.34-6 2.4-13.25 3.59-21.75 3.59-8.52 0-15.95-1.25-22.29-3.74-6.33-2.49-11.26-6.27-14.78-11.35-3.51-5.08-5.32-11.5-5.42-19.27h23.59c.2 3.2 1.07 5.88 2.63 8.01a14.41 14.41 0 0 0 6.42 4.85 25.62 25.62 0 0 0 9.56 1.65c3.31 0 6.13-.43 8.46-1.3a12.3 12.3 0 0 0 5.42-3.65 8.47 8.47 0 0 0 1.94-5.33 7.25 7.25 0 0 0-1.8-4.8c-1.15-1.37-2.94-2.53-5.37-3.5a56.2 56.2 0 0 0-9.15-2.77l-10.65-2.42c-8.82-1.98-15.77-5.16-20.85-9.56-5.07-4.44-7.6-10.42-7.56-17.96-.04-6.14 1.66-11.53 5.07-16.16 3.42-4.62 8.15-8.23 14.18-10.82 6.04-2.59 12.93-3.88 20.66-3.88 7.89 0 14.74 1.31 20.55 3.93 5.83 2.59 10.36 6.23 13.58 10.92 3.22 4.69 4.86 10.12 4.93 16.3h-23.59ZM90.82 51.99c-.35-3.77-1.9-6.7-4.65-8.79-2.7-2.12-6.58-3.19-11.63-3.19-3.34 0-6.12.43-8.34 1.29-2.23.86-3.9 2.04-5 3.54a8.48 8.48 0 0 0-1.73 5.09 7.46 7.46 0 0 0 .94 4.16c.73 1.2 1.77 2.26 3.13 3.19 1.39.89 3.06 1.68 5 2.36 1.95.69 4.14 1.29 6.58 1.8l9.18 2.05a65.32 65.32 0 0 1 13.98 4.53 37.8 37.8 0 0 1 10.22 6.73c2.78 2.6 4.88 5.6 6.3 8.99 1.44 3.39 2.17 7.2 2.2 11.4-.03 6.65-1.74 12.35-5.11 17.11-3.37 4.77-8.22 8.41-14.55 10.95-6.3 2.53-13.9 3.8-22.8 3.8-8.93 0-16.72-1.32-23.36-3.96-6.65-2.63-11.8-6.64-15.5-12.02C32 105.64 30.1 98.84 30 90.62h24.72c.21 3.4 1.13 6.22 2.77 8.48a15.13 15.13 0 0 0 6.73 5.14 26.63 26.63 0 0 0 10.01 1.75c3.48 0 6.43-.47 8.87-1.4 2.47-.92 4.36-2.2 5.68-3.84a9.02 9.02 0 0 0 2.04-5.66 7.72 7.72 0 0 0-1.88-5.08c-1.22-1.44-3.1-2.68-5.63-3.7a58.48 58.48 0 0 0-9.6-2.93L62.55 80.8C53.3 78.72 46 75.35 40.69 70.69c-5.32-4.7-7.96-11.03-7.93-19.01-.03-6.51 1.74-12.21 5.32-17.11 3.59-4.9 8.54-8.72 14.87-11.46S66.49 19 74.6 19c8.27 0 15.45 1.39 21.54 4.16 6.12 2.74 10.86 6.6 14.24 11.56 3.37 4.97 5.09 10.72 5.16 17.27H90.82Z"/>
</svg>
